<?xml version="1.0" encoding="utf-8"?>
<!-- Generator: Adobe Illustrator 25.1.0, SVG Export Plug-In . SVG Version: 6.00 Build 0)  -->
<svg version="1.1" id="Layer_1" xmlns="http://www.w3.org/2000/svg" xmlns:xlink="http://www.w3.org/1999/xlink" x="0px" y="0px"
	 viewBox="0 0 25 23" style="enable-background:new 0 0 25 23;" xml:space="preserve">
<style type="text/css">
	.st0{fill:#148903;}
</style>
<path class="st0" d="M9.7,20.7c-0.1,0-0.2,0-0.3-0.1c-0.1,0-0.1-0.1-0.2-0.2c-1.8-3-6.5-9.4-6.5-9.5c-0.1-0.1-0.1-0.2-0.1-0.4
	c0-0.1,0.1-0.2,0.2-0.3l1.5-1.4c0.1-0.1,0.2-0.1,0.3-0.2c0.1,0,0.2,0,0.3,0.1L9.6,12c3.1-4,6.1-6.8,8-8.5c2.2-1.8,3.5-2.7,3.6-2.7
	c0.1,0,0.2-0.1,0.3-0.1h2.3c0.1,0,0.2,0,0.3,0.1c0.1,0.1,0.2,0.1,0.2,0.2c0,0.1,0,0.2,0,0.3c0,0.1-0.1,0.2-0.2,0.3
	c-6.7,5.9-13.9,18.6-14,18.7c0,0.1-0.1,0.1-0.2,0.2C9.9,20.6,9.8,20.7,9.7,20.7L9.7,20.7z"/>
<path class="st0" d="M9.6,22.9c-5.3,0-9.6-4.3-9.6-9.6C0,8,4.3,3.7,9.6,3.7c1.1,0,2.1,0.2,3.1,0.5c0.1,0,0.2,0.1,0.3,0.3
	c0.1,0.1,0.1,0.3,0,0.4c0,0.1-0.1,0.2-0.3,0.3c-0.1,0.1-0.3,0.1-0.4,0c-0.9-0.3-1.8-0.5-2.8-0.5c-4.7,0-8.5,3.8-8.5,8.5
	c0,4.7,3.8,8.5,8.5,8.5c4.7,0,8.5-3.8,8.5-8.5c0-0.6-0.1-1.2-0.2-1.7c0-0.1,0-0.1,0-0.2c0-0.1,0-0.1,0.1-0.2c0-0.1,0.1-0.1,0.1-0.1
	c0.1,0,0.1-0.1,0.2-0.1s0.1,0,0.2,0c0.1,0,0.1,0,0.2,0.1c0.1,0,0.1,0.1,0.1,0.1c0,0.1,0.1,0.1,0.1,0.2c0.1,0.6,0.2,1.3,0.2,1.9
	C19.2,18.6,14.9,22.9,9.6,22.9z"/>
</svg>
