<?xml version="1.0" encoding="utf-8"?>
<!-- Generator: Adobe Illustrator 25.1.0, SVG Export Plug-In . SVG Version: 6.00 Build 0)  -->
<svg version="1.1" id="Layer_1" xmlns="http://www.w3.org/2000/svg" xmlns:xlink="http://www.w3.org/1999/xlink" x="0px" y="0px"
	 viewBox="0 0 179.8 192.4" style="enable-background:new 0 0 179.8 192.4;" xml:space="preserve">
<style type="text/css">
	.st0{fill:#E1C8B1;}
	.st1{fill:#E6D2CB;}
	.st2{fill:#E1C9B4;}
</style>
<g>
	<path class="st0" d="M91.4,161.2c-8.8-6.8-17.5-13.7-26.2-20.5c4.9-8.6,8.8-17.7,11.7-27.2c0.5-1.8-1.6-3.5-3.2-2.5
		c-9.7,6.2-19.4,12.4-29.1,18.7c-6.2-7.9-13-15.2-20.3-22.1c-1.6-1.5-3.7,0.1-3.4,2c0.8,6.1,1.7,12.3,2.5,18.4
		c0.6,4.7,1.2,9.6,2.7,14.1c-9.5,1.5-18.7,8.6-25.6,14.9c-1.3,1.2-0.2,3.4,1.4,3.4c10,0.4,19.9-0.2,29.8-1.6
		c2.5,10.7,5.6,21.2,9.5,31.5c0.9,2.4,3.7,2.7,5.2,0.7c7.1-9.5,12.7-19.7,16.2-31c8.8,1.8,17.5,3.7,26.3,5.5
		C91.1,166,93.6,163,91.4,161.2z"/>
	<path class="st1" d="M96,53.7c-2.5-6.8-5.1-13.5-7.6-20.3c5.6-3.1,10.9-6.9,15.7-11.2c0.9-0.8,0.3-2.5-1-2.5
		c-7.5,0.1-15,0.3-22.5,0.5C80,13.7,78.7,7.4,77,1.1C76.7-0.3,75-0.2,74.5,1c-1.6,3.7-3.2,7.4-4.9,11.1c-1.3,2.9-2.6,5.7-3.3,8.8
		C60.5,18.4,53,19.2,47,20.4c-1.2,0.2-1.3,1.8-0.4,2.4c5.4,3.6,11.1,6.6,17.1,9.2c-2.3,6.8-4.1,13.7-5.5,20.7
		c-0.3,1.6,1.1,2.7,2.6,2.1c7.2-2.9,13.8-6.6,19.5-11.7c4.2,4,8.5,8,12.7,12C94.3,56.2,96.7,55.4,96,53.7z"/>
	<path class="st2" d="M179.2,107.3c-6.7-2.7-13.4-5.4-20.1-8.2c1.5-6.3,2.4-12.7,2.5-19.1c0-1.2-1.6-1.9-2.5-1
		c-5,5.6-9.9,11.2-14.9,16.9c-5.3-3.8-10.8-7.2-16.6-10.2c-1.3-0.7-2.3,0.7-1.8,1.9c1.6,3.7,3.2,7.4,4.8,11.1
		c1.2,2.9,2.4,5.8,4.2,8.3c-5.7,2.7-10.2,8.7-13.4,13.9c-0.6,1,0.4,2.2,1.5,1.9c6.3-1.6,12.4-3.7,18.4-6.3
		c3.4,6.3,7.3,12.3,11.5,18.1c1,1.3,2.8,1,3.4-0.5c2.8-7.2,4.5-14.6,4.6-22.3c5.8-0.4,11.6-0.8,17.4-1.2
		C179.9,110.3,180.9,108,179.2,107.3z"/>
</g>
</svg>
