<svg xmlns="http://www.w3.org/2000/svg" xmlns:xlink="http://www.w3.org/1999/xlink" x="0px" y="0px" viewBox="0 0 100 100" style="enable-background:new 0 0 100 100;" xml:space="preserve"><style type="text/css">	.book0{fill:#4390FF;}	.book1{fill:#4D96FF;}	.book2{fill:#5AB1FF;}	.book3{fill:#83C4FF;}	.book4{fill:#FFECBB;}	.book5{fill:#FFCB92;}	.book6{fill:#FFC043;}	.book7{fill:#E86A43;}	.book8{fill:#7FC133;}	.book9{fill:#413E49;}	.book10{fill:#FFFFFF;}	.book11{fill:#FF624D;}	.book12{fill:#3972FF;}	.book13{fill:#3B82FF;}	.book14{fill:#FFF3E9;}	.book15{fill:#FFE7C0;}	.book16{opacity:0.3;fill:#FFFFFF;}	.book17{opacity:0.34;fill:#FFFFFF;}</style><g>	<path class="book0" d="M89.1,48.7c2.9-3.3,4.7-7.6,5.7-11.9c0.4-1.6,0.7-3.2,1.8-4.4c0,5.3-1.1,10.7-3.4,15.5  c-2.4,5.1-6.3,9.9-11.6,11.6c-1.6,0.5-3.5,0.7-4.8-0.3c-3.2-2.4,0.8-4.3,2.8-4.8C83.3,53.3,86.4,51.7,89.1,48.7z"></path>	<polygon class="book1" points="86,14.4 84.4,23.3 78.9,21.9 82.1,13.5 86,14.4  "></polygon>	<path class="book0" d="M9.3,16.7L19,95.4c0,0,0.2,1.3,1.5,2.3s3.2,1.8,3.2,1.8l-1.7-82.3L9.3,16.7L9.3,16.7z"></path>	<path class="book0" d="M93.3,31.9c-0.2-0.3-0.4-0.5-0.4-0.9c-0.1-0.3,0.1-0.7,0.4-0.8c0.3-0.1,0.7,0.2,0.8,0.5  c0.2,0.3,0.3,0.6,0.6,0.8c0-1.2,0.1-2.5,0.3-3.7c0.1-0.3,0.2-0.7,0.5-0.7c0.2,0,0.5,0.1,0.6,0.4c0.1,0.2,0.1,0.5,0.1,0.7  c0.2-0.3,0.1-0.7,0.2-1.1c0.1-0.4,0.5-0.7,0.8-0.5c0.2,0.1,0.2,0.4,0.2,0.6c0,0.4,0,0.8,0,1.1c0-0.2,0-0.3,0.1-0.4  c0.1-0.1,0.2-0.2,0.4-0.2c0.1,0,0.2,0.1,0.2,0.2c0.5,0.7,0.4,1.7,0.2,2.5c-0.5,2.7-1.4,5.4-2.7,7.8c-0.4,0.8-0.6,0-0.7-0.5  c-0.1-0.7,0-1.4-0.1-2.1C94.5,34.3,94,33,93.3,31.9z"></path>	<path class="book0" d="M14,60c-3.4,2.8-5.8,6.7-7.6,10.8c-0.6,1.5-1.2,3-2.5,4c0.8-5.3,2.9-10.3,5.9-14.7c3.2-4.7,7.8-8.7,13.3-9.5  c1.7-0.3,3.6-0.1,4.7,1.1c2.7,2.9-1.5,4.1-3.5,4.3C20.5,56.4,17.1,57.5,14,60z"></path>	<path class="book0" d="M7.1,75.9c0.1,0.3,0.3,0.6,0.3,0.9c0,0.3-0.2,0.7-0.5,0.7c-0.3,0-0.6-0.3-0.8-0.6C6,76.6,5.9,76.2,5.7,76  c-0.2,1.2-0.5,2.4-0.9,3.6c-0.1,0.3-0.3,0.6-0.6,0.6c-0.2,0-0.4-0.2-0.5-0.4c-0.1-0.2,0-0.5,0-0.7c-0.2,0.3-0.2,0.7-0.3,1.1  s-0.6,0.6-0.9,0.4c-0.2-0.2-0.1-0.4-0.1-0.6c0.1-0.4,0.1-0.8,0.2-1.1c0,0.1-0.1,0.3-0.2,0.4c-0.1,0.1-0.3,0.2-0.4,0.1  c-0.1,0-0.1-0.1-0.2-0.2c-0.4-0.8-0.1-1.7,0.2-2.5c0.9-2.6,2.3-5.1,4-7.3c0.6-0.7,0.6,0.1,0.6,0.6c0,0.7-0.2,1.4-0.2,2  C6.3,73.3,6.6,74.6,7.1,75.9z"></path>	<polygon class="book2" points="14.3,21.9 23.8,99.5 80.4,99.5 89.4,21.9  "></polygon>	<path class="book3" d="M14.3,21.9c0,0-5.2-1.6-5-5.1c0.2-3.5,6.2-4.1,6.2-4.1h69.7l0.9,1.7l-1.6,0.2l-4.8,4.6l8.4,0.7l1.4,2H14.3z"></path>	<path class="book4" d="M84.5,14.5H15.2l-0.4,4.8l72.5,0.5c0,0-1.6-1.3-2.4-2.7C83.8,15.3,84.5,14.5,84.5,14.5z"></path>	<path class="book1" d="M15.2,14.5c0,0-2.7-0.3-3.3,1.8c-0.7,2.8,2.9,3,2.9,3L15.2,14.5L15.2,14.5z"></path>	<g>		<path class="book5" d="M16.2,16c2.1,0.1,4.1,0.1,6.2,0.1c2.1,0,4.1,0,6.2,0c4.1,0,8.3,0,12.4,0c8.2,0,16.5,0.1,24.7,0   c2.3,0,4.6-0.1,7-0.1c2.3,0,4.6,0,7,0c0.1,0,0.1-0.1,0-0.1c-4.1-0.1-8.3,0-12.4-0.1c-4.1-0.1-8.3-0.1-12.4-0.1   c-8.2,0-16.5,0-24.7,0c-2.3,0-4.6,0-7,0C20.9,15.8,18.6,15.8,16.2,16C16.2,15.9,16.2,16,16.2,16L16.2,16z"></path>	</g>	<g>		<path class="book5" d="M16.2,17.7c2,0.1,4.1,0.1,6.1,0.1c2,0,4.1,0,6.1,0c4.1,0,8.1,0,12.2,0c1.1,0,2.3,0,3.4,0c1.1,0,2.3,0,3.4,0   c0.1,0,0.1-0.2,0-0.2c-1-0.1-2.1,0-3.1,0c-1,0-2,0-3,0c-2,0-4.1,0-6.1,0c-4.1,0-8.1,0-12.2,0C20.8,17.6,18.5,17.5,16.2,17.7   C16.2,17.7,16.2,17.7,16.2,17.7L16.2,17.7z"></path>	</g>	<g>		<path class="book5" d="M21.8,16.9c2,0.1,4,0,6.1,0c2,0,4,0,6.1,0c4,0,8.1,0,12.1,0c8,0,16.1,0,24.1,0c2.3,0,4.5,0,6.8,0   c2.3,0,4.5,0,6.8,0c0.1,0,0.1-0.2,0-0.2c-4-0.1-8.1,0-12.1,0c-4,0-8.1,0-12.1,0c-8,0-16.1,0-24.1,0c-2.3,0-4.5,0-6.8,0   C26.3,16.8,24,16.8,21.8,16.9C21.7,16.9,21.7,16.9,21.8,16.9L21.8,16.9z"></path>	</g>	<g>		<path class="book5" d="M19.9,18.8c8.2,0.1,16.5,0.1,24.7,0.1c8.2,0,16.4,0,24.6,0c4.6,0,9.2,0,13.9,0c0.2,0,0.2-0.3,0-0.3   c-8.2-0.1-16.5,0-24.7,0c-8.2,0-16.4,0-24.6,0C29.1,18.7,24.5,18.7,19.9,18.8C19.8,18.8,19.8,18.8,19.9,18.8L19.9,18.8z"></path>	</g>	<polygon class="book6" points="49.4,16.7 47.6,10.4 68.5,6.3 70.7,16.7  "></polygon>	<path class="book7" d="M63.9,16.9c-0.3-2.8-0.1-5.8,0.8-8.5c0.9-2.7,2.7-5.2,5.1-6.7c-0.2,1.4-0.3,2.8-0.2,4.2  C70.3,4.1,72.1,3,73.8,2c1.2-0.7,2.4-1.4,3.8-1.5c-2,2.4-3,5.5-3.7,8.6c-0.6,2.5-1.1,5.3-0.2,7.7L63.9,16.9z"></path>	<polygon class="book8" points="19.1,17.7 21.1,8.6 37.8,13.2 36.7,17.7  "></polygon>	<path class="book9" d="M24.4,30.9c-0.4,0.5-0.7,1.1-0.8,1.8c0,0.1,0,0.2,0,0.3c0.1,0.2,0.4,0.1,0.6,0c2.7-1.7,5.4-3.3,8.1-5  c0.3-0.2,0.6-0.4,0.8-0.7c0.2-0.3,0.3-0.7,0.1-1c-0.1-0.2-0.3-0.3-0.6-0.4c-1.8-0.7-2.9,0.4-4.3,1.3C26.8,28.1,25.5,29.4,24.4,30.9  z"></path>	<path class="book9" d="M77.3,30.3c0.4,0.5,0.7,1.1,0.8,1.8c0,0.1,0,0.2,0,0.3c-0.1,0.2-0.4,0.1-0.6,0c-2.7-1.7-5.4-3.3-8.1-5  c-0.3-0.2-0.6-0.4-0.8-0.7c-0.2-0.3-0.3-0.7-0.1-1c0.1-0.2,0.3-0.3,0.6-0.4c1.8-0.7,2.9,0.4,4.3,1.3C74.9,27.6,76.3,28.8,77.3,30.3  z"></path>	<g>		<path class="book9" d="M51.4,62.3L51.4,62.3C51.3,62.3,51.3,62.3,51.4,62.3c-0.1,0-0.2,0-0.2,0v0c-4.7,0.1-9.4-2.2-12.3-5.8   c0.4,1.7,0.9,3.3,1.3,5c0.7,2.6,1.4,5.2,2.7,7.5c1.3,2.3,3.4,4.3,5.9,5c0.8,0.2,1.7,0.3,2.5,0.3c0.8,0.1,1.7,0,2.5-0.3   c2.5-0.7,4.6-2.7,5.9-5c1.3-2.3,2-4.9,2.7-7.5c0.4-1.6,0.9-3.3,1.3-5C60.8,60.1,56,62.4,51.4,62.3z"></path>		<path class="book10" d="M51.3,62.3L51.3,62.3C51.3,62.3,51.2,62.3,51.3,62.3c-0.1,0-0.2,0-0.2,0v0c-3.6,0.1-7.2-1.3-10-3.5   c0.1,0.7,0.1,1.4,0.1,2.1c0,0.2,0,0.5,0.1,0.7c0.1,0.3,0.3,0.6,0.6,0.9c1.7,1.9,4.2,2.8,6.7,3.2c4.1,0.6,8.4-0.4,11.9-2.8   c0.2-0.1,0.4-0.3,0.6-0.6c0.1-0.3,0.1-0.7,0.1-1c-0.1-0.7-0.2-1.5-0.3-2.2C58.1,61.2,54.7,62.4,51.3,62.3z"></path>		<path class="book11" d="M57.9,71.3c0-0.1-0.1-0.2-0.2-0.4c-0.9-1.9-3.1-3.1-5.1-2.9c-0.9,0.1-1.8,0.5-2,1.3c-1.3-1-3.2-1-4.5,0   c-0.9,0.6-1.2,1.4-1.3,2.2c1.1,1.1,2.4,2,3.9,2.4c0.8,0.2,1.7,0.3,2.5,0.3c0.8,0.1,1.7,0,2.5-0.3C55.3,73.5,56.7,72.6,57.9,71.3z"></path>		<g>			<path class="book9" d="M37.9,57.2c-0.1-0.1-0.1-0.4-0.1-0.5c0-0.2,0-0.3,0-0.5c0.1-0.3,0.2-0.6,0.4-0.9c0.2-0.2,0.5-0.3,0.8-0.3    c0.3,0,0.6,0.3,0.8,0.4c0.1,0.1,0.2,0,0.1-0.1c-0.2-0.3-0.4-0.5-0.7-0.6c-0.3-0.1-0.6-0.1-0.9,0.1c-0.6,0.3-0.9,1-0.9,1.6    c0,0.2,0,0.4,0.1,0.5C37.7,57.2,37.8,57.2,37.9,57.2C38,57.3,38,57.2,37.9,57.2L37.9,57.2z"></path>		</g>		<g>			<path class="book9" d="M62.7,56.3c0.2-0.3,0.5-0.6,0.9-0.8c0.4-0.2,0.8-0.2,1.1,0.1c0.7,0.6,0.3,1.6,0.1,2.4c0,0.1,0.1,0.1,0.1,0    c0.4-0.7,0.7-1.6,0.3-2.3c-0.2-0.3-0.4-0.5-0.7-0.6c-0.4-0.1-0.8,0-1.1,0.2c-0.2,0.1-0.3,0.2-0.4,0.4    C62.7,55.9,62.7,56.1,62.7,56.3C62.6,56.3,62.6,56.3,62.7,56.3L62.7,56.3z"></path>		</g>	</g>	<g>		<path class="book12" d="M28.8,90.9c0-0.2,0.1-0.4,0.3-0.4c0.1,0,0.2,0,0.4,0.1c0.2,0.1,0.3,0.1,0.4,0.1c0.1,0,0.3-0.1,0.4-0.2   c0.1-0.2,0.2-0.3,0.3-0.6c0.2-0.5,0.2-0.9,0.2-1.3c0-0.4-0.1-0.8-0.2-1.2c-0.1-0.4-0.3-0.8-0.5-1.2c-0.2-0.4-0.4-0.8-0.6-1.1   c-0.5-0.9-0.7-1.7-0.7-2.5c0-0.7,0.2-1.3,0.7-1.7c0.2-0.2,0.5-0.3,0.8-0.3c0.2,0,0.3,0,0.5,0.1c0.2,0.1,0.3,0.2,0.3,0.4l-0.2,0.3   c-0.2,0-0.4,0-0.5-0.1c-0.2,0-0.3,0.1-0.4,0.2c-0.2,0.3-0.3,0.6-0.3,1c0,0.4,0,0.8,0.1,1.1c0.1,0.4,0.2,0.7,0.4,1   c0.1,0.3,0.3,0.6,0.5,0.9c0.2,0.3,0.3,0.7,0.5,1c0.3,0.7,0.5,1.5,0.5,2.3c0,0.6-0.1,1.1-0.4,1.7c-0.1,0.3-0.3,0.5-0.6,0.6   c-0.2,0.2-0.5,0.2-0.8,0.2c-0.3,0-0.6,0-0.8-0.1C28.9,91.1,28.8,91,28.8,90.9z"></path>		<path class="book12" d="M34.1,83.1l0,1.8l0.1,3.1l0.1,2.5c0,0.4-0.1,0.7-0.4,0.7c-0.1,0-0.3-0.1-0.3-0.2c-0.1-0.1-0.1-0.3-0.1-0.5   l0.1-2.2c0-0.5,0-1.2-0.1-2.1c-0.1-0.9-0.1-1.7-0.1-2.1l0-1.2c0-0.7,0-1.1-0.1-1.3l-0.7,0.1c-0.1,0-0.2,0-0.3-0.1   c-0.1-0.1-0.1-0.2-0.1-0.3c0-0.1,0.1-0.2,0.3-0.3c0.2-0.1,0.5-0.1,0.8-0.2c0.5-0.1,1-0.1,1.4-0.1c0.1,0,0.2,0,0.3,0.1   c0.1,0.1,0.1,0.2,0.1,0.3c0,0.1,0,0.2-0.1,0.3c-0.1,0.1-0.2,0.1-0.3,0.1l-0.5,0c-0.1,0-0.1,0-0.1,0C34.1,82,34.1,82.5,34.1,83.1z"></path>		<path class="book12" d="M35.6,83.6l0-2.1c-0.1-0.1-0.1-0.2-0.1-0.3c0-0.1,0-0.2,0.1-0.3c0.1-0.1,0.2-0.1,0.3-0.1   c0.3,0,0.5,0.3,0.5,1l0.1,4.7c0.1,0.1,0.1,0.4,0.1,0.7c0,0.4,0.1,0.6,0.1,0.8c0,0.2,0,0.5,0.1,0.7c0.1,0.3,0.2,0.6,0.3,0.9   c0.1,0.3,0.3,0.6,0.5,0.8c0.2,0.2,0.4,0.3,0.5,0.3c0.2,0,0.3,0,0.4-0.1c0.1-0.1,0.1-0.2,0.2-0.3c0-0.2,0.1-0.5,0.1-0.8v-2.7   c0-0.3,0-0.7-0.1-1.3c-0.1-0.6-0.1-1-0.1-1.3v-0.1l0-0.8l-0.1-2.3c0-0.1,0.1-0.2,0.2-0.3c0.1-0.1,0.2-0.1,0.3-0.1l0.3,0.3v0.2   l-0.1,0.8c0,0.8,0,1.9,0.1,3.4c0.1,1.5,0.1,2.6,0.1,3.1c0,0.5,0,0.9,0,1.1c0,0.2,0,0.4-0.1,0.6c-0.1,0.2-0.1,0.4-0.2,0.5   c-0.2,0.3-0.5,0.5-1,0.5c-0.5,0-1-0.2-1.3-0.7c-0.4-0.5-0.6-1.1-0.7-1.9c-0.2-0.8-0.3-1.6-0.3-2.2C35.6,85.5,35.6,84.5,35.6,83.6z   "></path>		<path class="book12" d="M43.7,86l0,0.3c0,0.6-0.2,1.4-0.5,2.3c-0.4,1-0.8,1.7-1.4,2.1c-0.3,0.2-0.6,0.4-0.9,0.4   c-0.2,0-0.3,0-0.5-0.1c-0.1-0.1-0.2-0.2-0.2-0.3c0.2-0.2,0.3-0.7,0.3-1.6c0-0.5,0-1.3-0.1-2.3c-0.1-1-0.1-1.7-0.1-2.2l0-1.5   c0-0.2,0-0.6-0.1-1c-0.1-0.4-0.1-0.7-0.1-0.9c0-0.3,0.3-0.5,1-0.5h0.2c0.9,0,1.6,0.5,2,1.6c0.3,0.7,0.4,1.7,0.4,3v0.6   C43.7,85.9,43.7,86,43.7,86z M41.2,89v1.3c0.3-0.2,0.6-0.5,0.9-0.9c0.2-0.4,0.4-0.8,0.6-1.3c0.2-0.9,0.4-1.8,0.4-2.7   c0-1-0.1-1.8-0.4-2.4c-0.3-0.6-0.6-1-1-1.2c-0.2-0.1-0.5-0.2-0.8-0.2v0c0,0.8,0.1,2.1,0.2,3.7C41.2,86.9,41.2,88.1,41.2,89z"></path>		<path class="book12" d="M46.1,86l-0.3,0c-0.1,0-0.2,0-0.3,0.1v4.2c0.5,0,0.7,0,0.7,0c0.5,0,0.8,0.1,0.8,0.4v0   c-0.1,0.1-0.2,0.2-0.3,0.3c-0.1,0.1-0.3,0.1-0.4,0.1c-0.1,0-0.3,0-0.4,0h-0.4c-0.3,0-0.5-0.1-0.6-0.2c0-0.1-0.1-0.1-0.1-0.2v-7.9   c0-0.2,0-0.4-0.1-0.7c-0.1-0.3-0.1-0.5-0.1-0.7v0c0.1-0.2,0.3-0.4,0.3-0.5l1-0.1c0.1,0,0.3,0,0.4,0.1c0.1,0.1,0.2,0.2,0.2,0.3   c0,0.3-0.2,0.4-0.6,0.4l-0.4,0c-0.1,0-0.1,0-0.1,0l0.1,2.3c0,0.2,0,0.4,0,0.8c0,0.3,0,0.6,0,0.8c0,0,0.1,0,0.2,0   c0.2,0,0.3-0.1,0.4-0.1c0.1,0,0.2,0,0.3,0.1c0.1,0.1,0.1,0.2,0.1,0.3s0,0.2-0.1,0.3C46.2,86,46.2,86,46.1,86z"></path>		<path class="book12" d="M47.6,83.9l0.1-2.5v-0.1c0-0.5,0.1-0.7,0.3-0.7c0.2,0,0.4,0.4,0.7,1.3c0.6,1.5,1.2,4.1,2,7.6l0,0.1l0.1-4.8   v-4c0.1-0.2,0.2-0.3,0.4-0.3c0.2,0,0.4,0.2,0.4,0.5V81c-0.1,0.1-0.1,0.2-0.1,0.4l-0.1,5v4.2c0,0.1,0,0.3-0.1,0.4   c-0.1,0.1-0.2,0.2-0.3,0.2c-0.2,0-0.6-0.9-1.1-2.8c-0.5-1.9-1.1-3.9-1.6-6v4.5c0,0.4,0,1.1,0.1,1.9c0.1,0.9,0.1,1.5,0.1,1.9   c0,0.1-0.1,0.2-0.2,0.2C48.2,91,48.1,91,47.9,91c-0.2,0-0.2-0.1-0.2-0.2l0.1-1c0-0.5,0-1.2-0.1-2.3c-0.1-1.1-0.1-1.7-0.1-1.9V83.9   z"></path>		<path class="book12" d="M54.1,83.1l0,1.8l0.1,3.1l0.1,2.5c0,0.4-0.1,0.7-0.4,0.7c-0.1,0-0.3-0.1-0.3-0.2c-0.1-0.1-0.1-0.3-0.1-0.5   l0.1-2.2c0-0.5,0-1.2-0.1-2.1c-0.1-0.9-0.1-1.7-0.1-2.1l0-1.2c0-0.7,0-1.1-0.1-1.3l-0.7,0.1c-0.1,0-0.2,0-0.3-0.1   c-0.1-0.1-0.1-0.2-0.1-0.3c0-0.1,0.1-0.2,0.3-0.3c0.2-0.1,0.5-0.1,0.8-0.2c0.5-0.1,1-0.1,1.4-0.1c0.1,0,0.2,0,0.3,0.1   C55,80.9,55,81,55,81.1c0,0.1,0,0.2-0.1,0.3c-0.1,0.1-0.2,0.1-0.3,0.1l-0.5,0c-0.1,0-0.1,0-0.1,0C54,82,54.1,82.5,54.1,83.1z"></path>		<path class="book12" d="M57.3,87.4l-0.1-5.5v-0.1c0-0.5,0.1-0.8,0.2-0.9c0.1-0.1,0.2-0.1,0.3-0.1c0.6,0,1.1,0.2,1.5,0.6   c0.4,0.4,0.5,1,0.5,1.6c0,0.4-0.1,0.8-0.3,1.3c-0.2,0.4-0.5,0.8-0.8,1c0.5,0.4,0.9,0.8,1.2,1.4c0.2,0.6,0.4,1.2,0.4,1.8   c0,0.3-0.1,0.7-0.2,1c-0.2,0.4-0.3,0.6-0.5,0.8c-0.2,0.2-0.4,0.4-0.6,0.5c-0.3,0.1-0.6,0.2-0.9,0.2h-0.1c-0.4,0-0.6-0.1-0.6-0.3   L57.3,87.4z M58.1,81.6c-0.1,0-0.2,0.2-0.2,0.5c0,0.3,0,0.8,0,1.5c0,0.7,0,1.2,0,1.5c0.2-0.1,0.4-0.2,0.6-0.6   c0.1-0.3,0.2-0.6,0.3-0.8c0.1-0.3,0.1-0.4,0.2-0.5v-0.5c0-0.3-0.1-0.5-0.3-0.8C58.6,81.7,58.4,81.6,58.1,81.6z M59.1,89.8   c0.3-0.3,0.4-0.7,0.4-1.2s0-0.9-0.1-1.2c-0.1-0.3-0.2-0.6-0.2-0.8c-0.1-0.2-0.2-0.3-0.3-0.4c-0.1-0.2-0.3-0.2-0.4-0.3H58   c0,1.3,0.1,2.8,0.1,4.5C58.5,90.4,58.9,90.1,59.1,89.8z"></path>		<path class="book12" d="M64.3,86.9l-0.1,1.7v0.1c-0.1,0.3-0.1,0.5-0.1,0.8s-0.1,0.6-0.2,0.8s-0.3,0.5-0.5,0.7   c-0.2,0.2-0.4,0.3-0.7,0.3c-0.2,0-0.5-0.1-0.7-0.3c-0.2-0.2-0.4-0.4-0.5-0.6c-0.1-0.3-0.2-0.6-0.3-0.9c-0.1-0.4-0.2-0.7-0.2-1.1   C61,88.1,61,87.8,61,87.4c-0.1-0.6-0.1-1-0.1-1.4c0-0.3,0-0.6,0-0.8c0-0.2,0-0.4,0-0.6c0-0.1,0-0.2,0-0.3c0-0.1,0-0.2,0-0.4   c0-0.3,0-0.5,0-0.7c0-0.2,0-0.4,0.1-0.7c0-0.2,0.1-0.5,0.1-0.6c0-0.2,0.1-0.4,0.2-0.5c0.1-0.2,0.2-0.3,0.3-0.4   c0.2-0.3,0.5-0.4,0.8-0.4c0.3,0,0.5,0.1,0.7,0.2c0.2,0.1,0.4,0.3,0.5,0.5c0.1,0.2,0.3,0.5,0.4,0.7c0.1,0.2,0.2,0.5,0.2,0.9   c0.1,0.4,0.1,0.7,0.1,0.9c0,0.2,0.1,0.6,0.1,1c0,0.6,0,1.1,0,1.4V86.9z M63.1,81.9c-0.1-0.2-0.2-0.4-0.3-0.5   c-0.1-0.1-0.3-0.2-0.4-0.2c-0.1,0-0.2,0-0.3,0.1c-0.1,0.1-0.2,0.2-0.2,0.4c-0.1,0.2-0.1,0.4-0.2,0.5c0,0.2-0.1,0.4-0.1,0.7   c0,0.3,0,0.5-0.1,0.7c0,0.2,0,0.4,0,0.7c0,0.4,0,0.7,0,1v0.1c0,0.6,0,1.3,0.1,2c0.1,0.7,0.2,1.3,0.3,1.7c0.1,0.4,0.2,0.8,0.4,1.1   c0.2,0.3,0.4,0.5,0.6,0.5c0.2,0,0.3-0.2,0.5-0.5c0.1-0.3,0.2-0.8,0.3-1.3c0.1-0.9,0.1-1.5,0.1-1.9c0-0.4,0-0.6,0-0.8   c0-0.2,0-0.4,0-0.7c0-0.3,0-0.6-0.1-0.9c0-0.3-0.1-0.6-0.1-0.9c0-0.3-0.1-0.6-0.2-0.9C63.3,82.4,63.2,82.2,63.1,81.9z"></path>		<path class="book12" d="M68.6,86.9l-0.1,1.7v0.1c-0.1,0.3-0.1,0.5-0.1,0.8s-0.1,0.6-0.2,0.8c-0.1,0.3-0.3,0.5-0.5,0.7   c-0.2,0.2-0.4,0.3-0.7,0.3c-0.2,0-0.5-0.1-0.7-0.3c-0.2-0.2-0.4-0.4-0.5-0.6c-0.1-0.3-0.2-0.6-0.3-0.9c-0.1-0.4-0.2-0.7-0.2-1.1   c-0.1-0.3-0.1-0.7-0.1-1.1c-0.1-0.6-0.1-1-0.1-1.4c0-0.3,0-0.6,0-0.8c0-0.2,0-0.4,0-0.6c0-0.1,0-0.2,0-0.3c0-0.1,0-0.2,0-0.4   c0-0.3,0-0.5,0-0.7c0-0.2,0-0.4,0.1-0.7c0-0.2,0.1-0.5,0.1-0.6c0-0.2,0.1-0.4,0.2-0.5c0.1-0.2,0.2-0.3,0.3-0.4   c0.2-0.3,0.5-0.4,0.8-0.4c0.3,0,0.5,0.1,0.7,0.2c0.2,0.1,0.4,0.3,0.5,0.5c0.1,0.2,0.3,0.5,0.4,0.7c0.1,0.2,0.2,0.5,0.2,0.9   c0.1,0.4,0.1,0.7,0.1,0.9c0,0.2,0.1,0.6,0.1,1c0,0.6,0,1.1,0,1.4V86.9z M67.4,81.9c-0.1-0.2-0.2-0.4-0.3-0.5   c-0.1-0.1-0.3-0.2-0.4-0.2c-0.1,0-0.2,0-0.3,0.1c-0.1,0.1-0.2,0.2-0.2,0.4c-0.1,0.2-0.1,0.4-0.2,0.5c0,0.2-0.1,0.4-0.1,0.7   c0,0.3,0,0.5-0.1,0.7c0,0.2,0,0.4,0,0.7c0,0.4,0,0.7,0,1v0.1c0,0.6,0,1.3,0.1,2c0.1,0.7,0.2,1.3,0.3,1.7c0.1,0.4,0.2,0.8,0.4,1.1   c0.2,0.3,0.4,0.5,0.6,0.5c0.2,0,0.3-0.2,0.5-0.5c0.1-0.3,0.2-0.8,0.3-1.3C67.9,88,68,87.3,68,87c0-0.4,0-0.6,0-0.8   c0-0.2,0-0.4,0-0.7c0-0.3,0-0.6-0.1-0.9c0-0.3-0.1-0.6-0.1-0.9c0-0.3-0.1-0.6-0.2-0.9C67.6,82.4,67.5,82.2,67.4,81.9z"></path>		<path class="book12" d="M69.7,86.6l0-2.6c0-0.5,0-1-0.1-1.6c-0.1-0.6-0.1-1-0.1-1.2c0-0.2,0-0.3,0.1-0.4c0.1-0.1,0.2-0.1,0.3-0.1   c0.3,0,0.5,0.4,0.5,1.1c0,0,0,0.9-0.1,2.8c0-0.1,0.1-0.3,0.3-0.7c0.1-0.4,0.3-0.7,0.4-1.1c0.2-0.4,0.3-0.8,0.5-1.2   c0.4-0.9,0.7-1.3,0.8-1.3c0.1,0,0.2,0,0.3,0.1c0.1,0.1,0.1,0.2,0.1,0.2c0,0.1-0.2,0.7-0.7,1.7c-0.5,1-0.8,1.7-0.8,2v0.2   c0.1,0.3,0.5,1.4,1.1,3.3c0.6,1.9,0.9,2.9,0.9,3s0,0.2-0.1,0.3c-0.1,0.1-0.2,0.1-0.3,0.1l-0.3-0.1c-0.2-1.3-0.5-2.4-0.7-3.4   c-0.2-1-0.6-1.9-0.9-2.7c-0.3,0.5-0.4,0.8-0.4,0.9c0,0.3,0,0.5,0,0.7l0.1,2.5v1.1c0,0.5-0.2,0.7-0.5,0.7c-0.3,0-0.4-0.2-0.4-0.7   c0-0.5,0-1.1,0.1-1.9C69.6,87.7,69.7,87,69.7,86.6z"></path>	</g>	<g>		<g>			<g>				<path class="book13" d="M26.9,37c-0.6,2.4-0.1,5,0.6,7.3c0.8,2.6,1.9,5.1,3.8,6.9c1.9,1.8,4.9,2.6,7.1,1.3c1.1-0.7,2-1.8,2.5-3     c0.5-1.3,0.7-2.6,0.8-4c0.2-2.7-0.1-5.5-0.9-8.2c-0.3-1.1-0.7-2.2-1.4-3.1c-1.6-2.2-4.5-3-6.9-2.1c-1.1,0.4-2.4,0.6-3.4,1.3     C28,34.3,27.2,35.6,26.9,37z"></path>				<path class="book14" d="M27.4,38.3c-0.6,2.3-0.1,4.8,0.6,7.1c0.8,2.5,1.8,5,3.7,6.8c1.9,1.7,4.7,2.5,6.8,1.3     c1.1-0.6,1.9-1.7,2.4-2.9c0.5-1.2,0.7-2.6,0.8-3.9c0.2-2.7-0.1-5.4-0.9-7.9c-0.3-1.1-0.7-2.1-1.4-3c-1.6-2.2-4.3-2.9-6.7-2.1     c-1.1,0.4-2.3,0.5-3.3,1.3C28.5,35.8,27.7,37,27.4,38.3z"></path>				<path class="book15" d="M40.9,38.8c-0.3-1.1-0.7-2.1-1.4-3c-0.6-0.8-1.3-1.4-2.1-1.8c0.2,0.2,0.3,0.4,0.5,0.6c0.6,0.9,1,2,1.4,3     c0.7,2.6,1,5.3,0.9,7.9c-0.1,1.3-0.3,2.7-0.8,3.9c-0.5,1.2-1.3,2.3-2.4,2.9c-1.6,0.9-3.6,0.7-5.3-0.2c0,0,0.1,0.1,0.1,0.1     c1.9,1.7,4.7,2.5,6.8,1.3c1.1-0.6,1.9-1.7,2.4-2.9c0.5-1.2,0.7-2.6,0.8-3.9C41.9,44.1,41.6,41.3,40.9,38.8z"></path>				<path class="book9" d="M30.8,42.7c-0.2,1-0.1,2.1,0.2,3.1c0.3,1.4,0.9,2.7,2,3.6c1,0.9,2.6,1.1,3.6,0.3c0.3-0.3,0.6-0.6,0.8-1     c1-1.8,1.1-4.2,0.1-6.2c-0.4-0.9-1.1-1.8-2-2.2C33.6,39.4,31.2,40.6,30.8,42.7z"></path>				<path class="book10" d="M31.9,44.4c0,0.3,0.1,0.6,0.4,0.7c0.1,0.1,0.3,0.1,0.5,0c0.5-0.1,0.9-0.6,1.1-1.1c0.3-0.6,0.5-1.3,0.5-2.1     c-0.1-1.1-1.2-1.6-1.9-0.8C31.8,41.9,31.8,43.5,31.9,44.4z"></path>				<path class="book16" d="M28.4,44c0.1,1.5,0.6,2.9,1.5,4c0.1,0.1,0.3,0.3,0.4,0.1c0.1-0.1,0-0.2,0-0.3c-0.7-2.6-1.4-5.3-0.9-7.9     c0-0.2,0.1-0.5-0.1-0.7c-0.7,0.4-0.8,1.4-0.9,2.1C28.4,42.3,28.4,43.2,28.4,44z"></path>			</g>		</g>		<path class="book15" d="M30.4,37.7c1-0.6,2.2-0.9,3.4-1c1.2-0.1,2.4-0.1,3.6,0.2c1.2,0.3,2.3,0.9,3.1,1.7c-0.3-1.5-1.4-2.8-2.8-3.5   c-1.4-0.7-3-1-4.5-0.9c-0.8,0-1.5,0.2-2.3,0.5c-1.4,0.6-2.5,1.8-3.1,3.1c-0.3,0.6-0.5,1.3-0.6,1.9c-0.1,0.4-0.3,1.4,0.1,1.7   c0.3,0.3,0.5-0.7,0.7-1c0.3-0.5,0.6-1.1,0.9-1.5C29.3,38.5,29.8,38,30.4,37.7z"></path>		<path class="book13" d="M28.2,38.8c0.9-1.5,2-2,3.2-2.4c0.5-0.1,1-0.2,1.5-0.3c1.6-0.2,3.2-0.2,4.8,0.1c1,0.2,2.5,1.1,3.1,2   c-0.4-0.7-1-2.2-1.4-3c-0.1-0.3-0.3-0.6-0.5-0.8c-0.2-0.3-0.5-0.4-0.8-0.6c-0.6-0.4-1.3-0.7-2-0.9c-0.7-0.2-1.5-0.1-2.2-0.1   c-1.9,0.2-3.8,0.7-5.2,1.9c-1,0.9-1.6,2.1-1.8,3.4c-0.2,1.1-0.3,3.6,0.2,4.7C27.3,42.7,27.6,39.9,28.2,38.8z"></path>		<path class="book17" d="M28,35.9c-0.7,1-0.9,2.3-0.7,3.5c0.1-1.2,0.7-2.3,1.5-3.1c0.8-0.9,1.8-1.5,2.9-1.9c0.5-0.2,1-0.3,1.4-0.7   c0,0,0.1-0.1,0.1-0.2c0-0.2-0.2-0.2-0.4-0.3C31,33.2,29,34.4,28,35.9z"></path>	</g>	<g>		<g>			<g>				<path class="book13" d="M63.6,34.4c-1.4,2-1.9,4.6-2.1,7.1c-0.2,2.7-0.1,5.5,1,7.9c1.1,2.4,3.6,4.2,6.1,3.8     c1.3-0.2,2.5-0.9,3.4-1.9c0.9-1,1.7-2.2,2.2-3.4c1.2-2.5,1.9-5.2,2.2-7.9c0.1-1.1,0.1-2.3-0.2-3.4c-0.7-2.7-3.1-4.4-5.7-4.5     c-1.2,0-2.4-0.3-3.6,0C65.7,32.4,64.4,33.3,63.6,34.4z"></path>				<path class="book14" d="M63.6,35.9c-1.4,1.9-1.8,4.5-2,6.9c-0.2,2.6-0.1,5.3,1,7.6c1.1,2.3,3.4,4.1,5.9,3.7     c1.3-0.2,2.4-0.9,3.3-1.8c0.9-0.9,1.6-2.1,2.2-3.3c1.1-2.4,1.9-5,2.1-7.7c0.1-1.1,0.1-2.3-0.1-3.3c-0.6-2.6-3-4.3-5.5-4.4     c-1.2,0-2.3-0.3-3.5,0C65.5,33.9,64.4,34.7,63.6,35.9z"></path>				<path class="book15" d="M76,41.2c0.1-1.1,0.1-2.3-0.1-3.3c-0.2-1-0.7-1.8-1.3-2.5c0.1,0.2,0.2,0.5,0.2,0.7     c0.3,1.1,0.2,2.2,0.1,3.3c-0.2,2.7-1,5.3-2.1,7.7c-0.6,1.2-1.3,2.4-2.2,3.3c-0.9,0.9-2.1,1.7-3.3,1.8c-1.8,0.3-3.6-0.7-4.8-2.1     c0,0.1,0,0.1,0.1,0.2c1.1,2.3,3.4,4.1,5.9,3.7c1.3-0.2,2.4-0.9,3.3-1.8c0.9-0.9,1.6-2.1,2.2-3.3C75,46.5,75.7,43.9,76,41.2z"></path>				<path class="book9" d="M65.2,41.2c-0.6,0.9-0.8,1.9-0.9,3c-0.2,1.4-0.1,2.9,0.5,4.1c0.6,1.2,2,2,3.3,1.6c0.4-0.1,0.8-0.4,1.1-0.6     c1.6-1.3,2.5-3.5,2.4-5.7c-0.1-1-0.4-2.1-1.1-2.8C69,39.2,66.3,39.4,65.2,41.2z"></path>				<path class="book10" d="M65.6,43.2c-0.1,0.3-0.1,0.6,0.1,0.8c0.1,0.1,0.3,0.2,0.4,0.2c0.5,0.1,1-0.2,1.5-0.6     c0.5-0.5,1-1.1,1.2-1.7c0.3-1.1-0.5-1.9-1.5-1.5C66.3,40.8,65.8,42.3,65.6,43.2z"></path>				<path class="book16" d="M62.5,41.6C62,43,62,44.5,62.4,45.9c0,0.2,0.2,0.4,0.3,0.3c0.1,0,0.1-0.1,0.1-0.2c0.3-2.6,0.6-5.4,2.1-7.6     c0.1-0.2,0.3-0.4,0.2-0.6c-0.8,0.1-1.2,1-1.6,1.6C63.1,40,62.7,40.8,62.5,41.6z"></path>			</g>		</g>		<path class="book15" d="M66.6,36.4c1.2-0.2,2.4,0,3.5,0.4c1.1,0.3,2.3,0.8,3.2,1.5c1,0.7,1.8,1.6,2.3,2.7c0.2-1.5-0.3-3.1-1.3-4.3   c-1-1.2-2.4-2-3.9-2.5c-0.7-0.2-1.5-0.4-2.3-0.4c-1.5,0-3,0.7-4,1.8c-0.5,0.5-0.9,1-1.2,1.6c-0.2,0.3-0.8,1.2-0.6,1.6   c0.2,0.4,0.8-0.5,1-0.7c0.4-0.4,0.9-0.8,1.4-1.1C65.3,36.7,65.9,36.5,66.6,36.4z"></path>		<path class="book13" d="M64.2,36.6c1.4-1.1,2.6-1.2,3.8-1.1c0.5,0,1,0.1,1.5,0.3c1.6,0.4,3.1,1,4.5,1.8c0.9,0.5,1.9,1.9,2.2,3   c-0.1-0.8-0.1-2.5-0.2-3.3c0-0.3-0.1-0.6-0.2-0.9c-0.1-0.3-0.3-0.6-0.6-0.8c-0.5-0.6-0.9-1.1-1.5-1.5c-0.6-0.4-1.3-0.7-2-0.9   c-1.8-0.5-3.8-0.8-5.6-0.1c-1.2,0.5-2.2,1.4-2.9,2.4c-0.6,0.9-1.6,3.3-1.6,4.4C61.9,39.9,63.2,37.4,64.2,36.6z"></path>		<path class="book17" d="M65,33.9c-1,0.7-1.7,1.8-2,3c0.5-1,1.5-1.8,2.5-2.3c1.1-0.5,2.2-0.7,3.4-0.7c0.5,0,1.1,0.1,1.5-0.2   c0.1,0,0.1-0.1,0.1-0.1c0.1-0.1-0.1-0.3-0.2-0.4C68.8,32.4,66.5,32.8,65,33.9z"></path>	</g></g></svg>