<svg xmlns="http://www.w3.org/2000/svg" xmlns:xlink="http://www.w3.org/1999/xlink" x="0px" y="0px" viewBox="0 0 100 100" style="enable-background:new 0 0 100 100;" xml:space="preserve">	<style type="text/css">		.cals0{fill:#93A0A3;}	.cals1{fill:#54515E;}	.cals2{fill:#413E49;}	.cals3{fill:#1F1E23;}	.cals4{fill:#37353D;}	.cals5{fill:#A6B6BA;}	.cals6{fill:#C1D4DB;}	.cals7{fill:#D9EEF4;}	.cals8{fill:#839093;}	.cals9{fill:#737D7F;}	.cals10{opacity:0.16;}	.cals11{fill:#FFFFFF;}	.cals12{fill:#A3B3B7;}	.cals13{fill:#CFE1E5;}	.cals14{opacity:0.64;fill:#FFFFFF;}	.cals15{fill:#F96846;}	.cals16{fill:#E54433;}	.cals17{fill:#5E5C68;}	.cals18{fill:#FFF3E9;}	.cals19{fill:#FFE7C0;}	.cals20{fill:#6E7677;}	.cals21{fill:#5F6666;}	.cals22{opacity:0.3;fill:#FFFFFF;}	</style>	<g>		<path class="cals0" d="M17.3,71c0.7-0.7,1-1.7,0.9-2.7c0.2-0.2,0.5-0.1,0.6,0.1c0.1,0.2,0.2,0.5,0.2,0.7c0.1,2.5,0.1,5,0.2,7.5  c0,0.1,0,0.1,0,0.2c0,0.1-0.1,0.1-0.2,0.1c-1,0.2-1.9-0.4-2.7-1c-0.7-0.6-1.3-1.2-1.9-1.8c-0.4-0.4-0.8-0.9-0.9-1.5  c0-0.2,0-0.3,0.1-0.4c0.3-0.5,1.2-0.1,1.7-0.1C16,71.9,16.8,71.5,17.3,71z">		</path>		<path class="cals0" d="M13,53.8c-2.8,1.8-5.1,4.7-5.8,8c-0.7,3.3,0.3,7,2.7,9.3c2.5,2.3,6,3,9.4,3.6c0.5,0.1,1.1,0.1,1.4-0.3  c0.3-0.4,0.1-0.9-0.3-1.2c-0.4-0.3-0.8-0.4-1.3-0.4c-1.6-0.3-3.1-0.8-4.6-1.4c-0.9-0.4-1.8-0.8-2.5-1.5c-0.8-0.8-1.3-2-1.6-3.2  c-0.4-1.9-0.2-4,0.7-5.8c0.9-1.8,2.5-3.2,4.3-3.8c2-0.6,4.6-0.5,5.9-2.2c0.6-0.8,0.8-1.9,0.8-2.9c0-0.7,0-1.5-0.3-2.1  c-1.2-2.1-2.8,0.2-3.9,1C16.4,52,14.6,52.8,13,53.8z">		</path>		<path class="cals0" d="M79,51.5c3-1.5,5.3-4.2,6.9-7.1c1.6-2.9,2.6-6.1,3.6-9.3c0.4-0.2,0.9,0.1,1,0.5c0.2,0.4,0.1,0.9,0.1,1.3  c-0.8,6-4,11.4-7.7,16.1c-2.3,2.9-5,5.7-8.5,7c-1,0.4-2.3,0.6-3.1-0.2c-0.5-0.5-0.7-1.3-0.8-2c-0.2-1.8,0.3-5.6,2.8-5.6  c0.7,0,1.3,0.5,2.1,0.5C76.6,52.7,77.9,52.1,79,51.5z">		</path>		<polygon class="cals1" points="51.6,1.3 71.6,16.8 71.8,19 51.3,5.2 51.6,1.3  ">		</polygon>		<polygon class="cals2" points="26,19.3 25.5,17.3 51.6,1.3 51.3,5.2 26,19.3  ">		</polygon>		<path class="cals3" d="M26,19.3C26,19,51.3,5.2,51.3,5.2L71.8,19L47.5,29.3L26,19.3z">		</path>		<path class="cals2" d="M36.9,25.8c7.4,0.5,14.8,0.6,22.2,0.4c0.9-3.2,1.6-4.8,2.2-8.1c0.3-1.7-3.2-4.3-13.2-3.8  c-9.2,0.5-12.3,2.6-12.7,3.9c-0.2,0.9,0.6,2.7,0.8,3.6C36.4,23.1,36.6,24.5,36.9,25.8z">		</path>		<path class="cals4" d="M45.1,16.7c2.2-1.1,4.6-1.7,7-2c0.8-0.1,1.6-0.1,2.4-0.2c-1.8-0.2-3.9-0.3-6.5-0.2c-9.2,0.5-12.3,2.6-12.7,3.9  c-0.2,0.9,0.6,2.7,0.8,3.6c0.3,1.3,0.5,2.6,0.8,4c2.1,0.1,4.2,0.3,6.3,0.3c-0.2-0.3-0.3-0.5-0.5-0.8c-0.8-1.2-1.4-2.6-1.3-4  C41.4,19.3,43.2,17.7,45.1,16.7z">		</path>		<g>			<path class="cals5" d="M25.2,98.6l39.6,0.1c3.5,0,6.3-2.8,6.3-6.3l0.1-61.2c0-3.5-2.8-6.3-6.3-6.3l-39.6-0.1c-3.5,0-6.3,2.8-6.3,6.3   l-0.1,61.2C18.9,95.8,21.7,98.6,25.2,98.6z">			</path>			<path class="cals0" d="M18.8,92.3l0-17.3c2.8-4.3,4.1-9.8,4.4-15c0.5-7.5-1.8-32.7,3-33.8c2.6-0.6,3.9,4.1,5.2,5.8   c7.3,10,12,21.5,16.4,33c2.2,5.6,4.3,11.3,5.7,17.1c1.3,5.1,2.1,10.5,1,15.7c0,0.1,0,0.2-0.1,0.3l-30,0   C21.4,98.1,18.8,95.5,18.8,92.3z">			</path>			<path class="cals6" d="M30.7,98.6l39.6,0.1c3.5,0,6.3-2.8,6.3-6.3l0.1-61.2c0-3.5-2.8-6.3-6.3-6.3l-39.6-0.1c-3.5,0-6.3,2.8-6.3,6.3   l-0.1,61.2C24.4,95.8,27.2,98.6,30.7,98.6z">			</path>			<g>				<path class="cals7" d="M68.8,97.1C68.8,97.1,68.8,97.1,68.8,97.1l-37.4,0c-3.3,0-6-2.7-6-6l0.1-59c0-1.6,0.6-3.1,1.8-4.2    c1.1-1.1,2.6-1.7,4.2-1.7c0,0,0,0,0,0l37.4,0c3.3,0,6,2.7,6,6l-0.1,59C74.8,94.5,72.1,97.1,68.8,97.1z M31.4,95.9l37.4,0    c0,0,0,0,0,0c2.6,0,4.8-2.1,4.8-4.8l0.1-59c0-2.6-2.1-4.8-4.8-4.8l-37.4,0c0,0,0,0,0,0c-1.3,0-2.5,0.5-3.4,1.4    c-0.9,0.9-1.4,2.1-1.4,3.4l-0.1,59C26.6,93.7,28.8,95.9,31.4,95.9L31.4,95.9z">				</path>			</g>			<path class="cals8" d="M32.8,53.5l35.5,0c1.8,0,3.2-1.4,3.2-3.2l0-16.1c0-1.8-1.4-3.2-3.2-3.2l-35.5,0c-1.8,0-3.2,1.4-3.2,3.2   l0,16.1C29.6,52.1,31,53.5,32.8,53.5z">			</path>			<path class="cals9" d="M69.7,52.1l0-16.7c0-1.6-1.3-2.9-2.9-3l-36.1,0c-0.2,0-0.5,0-0.7,0.1c0.5-0.9,1.5-1.5,2.6-1.5l36.1,0   c1.6,0,2.9,1.3,2.9,3l0,16.7c0,1.4-1,2.5-2.3,2.9C69.5,53.1,69.7,52.6,69.7,52.1z">			</path>			<g class="cals10">				<path class="cals11" d="M60.1,31l4.9,0c2.2,2.6,4.4,5.3,6.5,8l0,4C67.9,38.8,64.1,34.8,60.1,31z">				</path>				<path class="cals11" d="M38.6,53.5c-2.8-3.7-5.9-7.3-9-10.8l0-8.9c0-0.3,0-0.5,0.1-0.7c5,6.6,9.7,13.5,14.3,20.4L38.6,53.5z">				</path>				<path class="cals11" d="M43.5,42.4c-2.5-3.8-5-7.7-7.5-11.5l13.2,0c6.3,7.3,12.3,14.9,18,22.6c0,0,0,0,0,0l-16.7,0    C48.4,49.8,45.9,46.1,43.5,42.4z">				</path>			</g>			<g>				<path class="cals12" d="M60.4,73.7l8.8,0c1.3,0,2.3-1,2.3-2.3l0-3.3c0-1.3-1-2.3-2.3-2.3l-8.8,0c-1.3,0-2.3,1-2.3,2.3l0,3.3    C58.1,72.7,59.1,73.7,60.4,73.7z">				</path>				<path class="cals7" d="M61,73.5l8.3,0c1.2,0,2.2-1,2.2-2.2l0-3.5c0-1.2-1-2.2-2.2-2.2l-8.3,0c-1.2,0-2.2,1-2.2,2.2l0,3.5    C58.7,72.4,59.7,73.5,61,73.5z">				</path>				<path class="cals13" d="M59.5,66c-0.1,0.2-0.1,0.5-0.1,0.7l0,3.6c0,1.2,0.9,2.1,1.9,2.1l8.9,0c0.5,0,0.9-0.2,1.2-0.5    c-0.3,0.8-1,1.4-1.8,1.4l-8.9,0c-1.1,0-1.9-1-1.9-2.1l0-3.6C58.8,67,59.1,66.4,59.5,66z">				</path>				<path class="cals14" d="M68.4,66.5c0.4,0,0.8,0,1.1,0.1c0.8,0.3,1.3,1.4,1.3,2.3c0,0.5,0,1.1-0.3,1.5c-0.3,0.4-0.8,0.6-1.2,0.3    c-0.3-0.2-0.4-0.7-0.5-1.1c0-0.4,0-0.9-0.2-1.3c-0.2-0.4-0.5-0.6-0.8-0.7c-0.8-0.3-1.6-0.3-2.5-0.2c-1,0-2,0.1-3,0    c-0.2,0-0.4,0-0.6-0.2c-0.2-0.1-0.3-0.4-0.2-0.6c0.1-0.2,0.4-0.2,0.6-0.2c0.9,0,1.8-0.2,2.7-0.2C66.1,66.3,67.2,66.5,68.4,66.5z">				</path>			</g>			<g>				<path class="cals12" d="M45.1,63.5l6,0c1.1,0,2-0.9,2-2l0-4c0-1.1-0.9-2-2-2l-6,0c-1.1,0-2,0.9-2,2l0,4    C43.1,62.7,44,63.5,45.1,63.5z">				</path>				<path class="cals7" d="M45.5,63.3l5.6,0c1.1,0,1.9-0.9,1.9-1.9l0-4.1c0-1.1-0.9-1.9-1.9-1.9l-5.6,0c-1.1,0-1.9,0.9-1.9,1.9l0,4.1    C43.6,62.4,44.5,63.3,45.5,63.3z">				</path>				<path class="cals13" d="M44.2,55.9c-0.1,0.2-0.1,0.5-0.1,0.7l0,3.6c0,1.2,0.6,2.1,1.4,2.1l6.6,0c0.3,0,0.7-0.2,0.9-0.5    c-0.2,0.8-0.7,1.4-1.4,1.4l-6.6,0c-0.8,0-1.4-1-1.4-2.1l0-3.6C43.7,56.9,43.9,56.3,44.2,55.9z">				</path>				<path class="cals14" d="M50.8,56.3c0.3,0,0.6,0,0.8,0.1c0.6,0.3,0.9,1.4,1,2.3c0,0.5,0,1.1-0.2,1.5c-0.2,0.4-0.6,0.6-0.9,0.3    c-0.2-0.2-0.3-0.7-0.3-1.1c0-0.4,0-0.9-0.1-1.3c-0.1-0.4-0.4-0.6-0.6-0.7c-0.6-0.3-1.2-0.3-1.8-0.2c-0.7,0-1.5,0.1-2.2,0    c-0.2,0-0.3,0-0.5-0.2c-0.1-0.1-0.2-0.4-0.1-0.6c0.1-0.2,0.3-0.2,0.4-0.2c0.7,0,1.3-0.2,2-0.2C49,56.1,49.9,56.3,50.8,56.3z">				</path>			</g>			<g>				<path class="cals12" d="M32.9,63.5l6,0c1.1,0,2-0.9,2-2l0-4c0-1.1-0.9-2-2-2l-6,0c-1.1,0-2,0.9-2,2l0,4    C31,62.6,31.8,63.5,32.9,63.5z">				</path>				<path class="cals7" d="M33.4,63.2l5.6,0c1.1,0,1.9-0.9,1.9-1.9l0-4.1c0-1.1-0.9-1.9-1.9-1.9l-5.6,0c-1.1,0-1.9,0.9-1.9,1.9l0,4.1    C31.5,62.4,32.3,63.2,33.4,63.2z">				</path>				<path class="cals13" d="M32.1,55.8C32,56,32,56.3,32,56.5l0,3.6c0,1.2,0.6,2.1,1.4,2.1l6.6,0c0.3,0,0.7-0.2,0.9-0.5    c-0.2,0.8-0.7,1.4-1.4,1.4l-6.6,0c-0.8,0-1.4-1-1.4-2.1l0-3.6C31.5,56.8,31.7,56.2,32.1,55.8z">				</path>				<path class="cals14" d="M38.6,56.3c0.3,0,0.6,0,0.8,0.1c0.6,0.3,0.9,1.4,1,2.3c0,0.5,0,1.1-0.2,1.5c-0.2,0.4-0.6,0.6-0.9,0.3    c-0.2-0.2-0.3-0.7-0.3-1.1c0-0.4,0-0.9-0.1-1.3c-0.1-0.4-0.4-0.6-0.6-0.7c-0.6-0.3-1.2-0.3-1.8-0.2c-0.7,0-1.5,0.1-2.2,0    c-0.2,0-0.3,0-0.5-0.2c-0.1-0.1-0.2-0.4-0.1-0.6c0.1-0.2,0.3-0.2,0.4-0.2c0.7,0,1.3-0.2,2-0.2C36.9,56.1,37.7,56.3,38.6,56.3z">				</path>			</g>			<g>				<path class="cals12" d="M57.3,63.6l11.6,0c1.4,0,2.6-1.1,2.6-2.5l0-2.8c0-1.4-1.1-2.6-2.5-2.6l-11.6,0c-1.4,0-2.6,1.1-2.6,2.5    l0,2.8C54.8,62.5,55.9,63.6,57.3,63.6z">				</path>				<path class="cals15" d="M58.1,63.4l10.9,0c1.4,0,2.5-1.1,2.5-2.5l0-2.9c0-1.4-1.1-2.5-2.5-2.5l-10.9,0c-1.4,0-2.5,1.1-2.5,2.5    l0,2.9C55.6,62.3,56.7,63.4,58.1,63.4z">				</path>				<path class="cals16" d="M56.6,55.9c-0.1,0.2-0.1,0.5-0.1,0.7l0,3.6c0,1.2,1.1,2.1,2.4,2.1l11.1,0c0.6,0,1.1-0.2,1.5-0.5    c-0.3,0.8-1.2,1.4-2.3,1.4l-11.1,0c-1.3,0-2.4-1-2.4-2.1l0-3.6C55.7,56.9,56,56.3,56.6,55.9z">				</path>				<path class="cals14" d="M67.6,56.4c0.5,0,1,0,1.4,0.1c1,0.3,1.6,1.4,1.6,2.3c0,0.5,0,1.1-0.4,1.5c-0.3,0.4-1.1,0.6-1.5,0.3    c-0.4-0.2-0.5-0.7-0.6-1.1c0-0.4,0-0.9-0.2-1.3c-0.2-0.4-0.6-0.6-1-0.7c-1-0.3-2-0.3-3.1-0.2c-1.2,0-2.5,0.1-3.7,0    c-0.3,0-0.6,0-0.8-0.2c-0.2-0.1-0.4-0.4-0.2-0.6c0.1-0.2,0.4-0.2,0.7-0.2c1.1,0,2.3-0.2,3.4-0.2C64.7,56.2,66.1,56.4,67.6,56.4z">				</path>			</g>			<g>				<path class="cals12" d="M45.6,73.8l8.8,0c1.3,0,2.3-1,2.3-2.3l0-3.3c0-1.3-1-2.3-2.3-2.3l-8.8,0c-1.3,0-2.3,1-2.3,2.3l0,3.3    C43.3,72.8,44.3,73.8,45.6,73.8z">				</path>				<path class="cals7" d="M46.2,73.6l8.3,0c1.2,0,2.2-1,2.2-2.2l0-3.5c0-1.2-1-2.2-2.2-2.2l-8.3,0c-1.2,0-2.2,1-2.2,2.2l0,3.5    C44,72.5,45,73.5,46.2,73.6z">				</path>				<path class="cals13" d="M44.8,66.1c-0.1,0.2-0.1,0.5-0.1,0.7l0,3.6c0,1.2,0.9,2.1,1.9,2.1l8.9,0c0.5,0,0.9-0.2,1.2-0.5    c-0.3,0.8-1,1.4-1.8,1.4l-8.9,0c-1.1,0-1.9-1-1.9-2.1l0-3.6C44,67.1,44.3,66.5,44.8,66.1z">				</path>				<path class="cals14" d="M53.6,66.6c0.4,0,0.8,0,1.1,0.1c0.8,0.3,1.3,1.4,1.3,2.3c0,0.5,0,1.1-0.3,1.5c-0.3,0.4-0.8,0.6-1.2,0.3    c-0.3-0.2-0.4-0.7-0.5-1.1c0-0.4,0-0.9-0.2-1.3c-0.2-0.4-0.5-0.6-0.8-0.7c-0.8-0.3-1.6-0.3-2.5-0.2c-1,0-2,0.1-3,0    c-0.2,0-0.4,0-0.6-0.2c-0.2-0.1-0.3-0.4-0.2-0.6c0.1-0.2,0.4-0.2,0.6-0.2c0.9,0,1.8-0.2,2.7-0.2C51.3,66.4,52.5,66.6,53.6,66.6z">				</path>			</g>			<g>				<path class="cals12" d="M30.9,73.5l8.8,0c1.3,0,2.3-1,2.3-2.3l0-3.3c0-1.3-1-2.3-2.3-2.3l-8.8,0c-1.3,0-2.3,1-2.3,2.3l0,3.3    C28.6,72.5,29.7,73.5,30.9,73.5z">				</path>				<path class="cals7" d="M31.5,73.3l8.3,0c1.2,0,2.2-1,2.2-2.2l0-3.5c0-1.2-1-2.2-2.2-2.2l-8.3,0c-1.2,0-2.2,1-2.2,2.2l0,3.5    C29.3,72.3,30.3,73.3,31.5,73.3z">				</path>				<path class="cals13" d="M30.1,65.8C30,66.1,30,66.3,30,66.6l0,3.6c0,1.2,0.9,2.1,1.9,2.1l8.9,0c0.5,0,0.9-0.2,1.2-0.5    c-0.3,0.8-1,1.4-1.8,1.4l-8.9,0c-1.1,0-1.9-1-1.9-2.1l0-3.6C29.4,66.8,29.7,66.2,30.1,65.8z">				</path>				<path class="cals14" d="M38.9,66.3c0.4,0,0.8,0,1.1,0.1c0.8,0.3,1.3,1.4,1.3,2.3c0,0.5,0,1.1-0.3,1.5s-0.8,0.6-1.2,0.3    c-0.3-0.2-0.4-0.7-0.5-1.1c0-0.4,0-0.9-0.2-1.3c-0.2-0.4-0.5-0.6-0.8-0.7c-0.8-0.3-1.6-0.3-2.5-0.2c-1,0-2,0.1-3,0    c-0.2,0-0.4,0-0.6-0.2c-0.2-0.1-0.3-0.4-0.2-0.6c0.1-0.2,0.4-0.2,0.6-0.2c0.9,0,1.8-0.2,2.7-0.2C36.6,66.1,37.8,66.3,38.9,66.3z">				</path>			</g>			<g>				<path class="cals12" d="M60.3,83.9l8.8,0c1.3,0,2.3-1,2.3-2.3l0-3.3c0-1.3-1-2.3-2.3-2.3l-8.8,0C59,76,58,77,58,78.3l0,3.3    C58,82.9,59,83.9,60.3,83.9z">				</path>				<path class="cals7" d="M60.9,83.7l8.3,0c1.2,0,2.2-1,2.2-2.2l0-3.5c0-1.2-1-2.2-2.2-2.2l-8.3,0c-1.2,0-2.2,1-2.2,2.2l0,3.5    C58.7,82.7,59.7,83.7,60.9,83.7z">				</path>				<path class="cals13" d="M59.4,76.2c-0.1,0.2-0.1,0.5-0.1,0.7l0,3.6c0,1.2,0.9,2.1,1.9,2.1l8.9,0c0.5,0,0.9-0.2,1.2-0.5    c-0.3,0.8-1,1.4-1.8,1.4l-8.9,0c-1.1,0-1.9-1-1.9-2.1l0-3.6C58.7,77.2,59,76.6,59.4,76.2z">				</path>				<path class="cals14" d="M68.3,76.7c0.4,0,0.8,0,1.1,0.1c0.8,0.3,1.3,1.4,1.3,2.3c0,0.5,0,1.1-0.3,1.5c-0.3,0.4-0.8,0.6-1.2,0.3    c-0.3-0.2-0.4-0.7-0.5-1.1c0-0.4,0-0.9-0.2-1.3c-0.2-0.4-0.5-0.6-0.8-0.7c-0.8-0.3-1.6-0.3-2.5-0.2c-1,0-2,0.1-3,0    c-0.2,0-0.4,0-0.6-0.2c-0.2-0.1-0.3-0.4-0.2-0.6c0.1-0.2,0.4-0.2,0.6-0.2c0.9,0,1.8-0.2,2.7-0.2C66,76.5,67.1,76.7,68.3,76.7z">				</path>			</g>			<g>				<path class="cals12" d="M45.5,84l8.8,0c1.3,0,2.3-1,2.3-2.3l0-3.3c0-1.3-1-2.3-2.3-2.3l-8.8,0c-1.3,0-2.3,1-2.3,2.3l0,3.3    C43.2,83,44.2,84,45.5,84z">				</path>				<path class="cals7" d="M46.1,83.8l8.3,0c1.2,0,2.2-1,2.2-2.2l0-3.5c0-1.2-1-2.2-2.2-2.2l-8.3,0c-1.2,0-2.2,1-2.2,2.2l0,3.5    C43.9,82.8,44.9,83.8,46.1,83.8z">				</path>				<path class="cals13" d="M44.7,76.3c-0.1,0.2-0.1,0.5-0.1,0.7l0,3.6c0,1.2,0.9,2.1,1.9,2.1l8.9,0c0.5,0,0.9-0.2,1.2-0.5    c-0.3,0.8-1,1.4-1.8,1.4l-8.9,0c-1.1,0-1.9-1-1.9-2.1l0-3.6C44,77.3,44.2,76.7,44.7,76.3z">				</path>				<path class="cals14" d="M53.5,76.8c0.4,0,0.8,0,1.1,0.1c0.8,0.3,1.3,1.4,1.3,2.3c0,0.5,0,1.1-0.3,1.5c-0.3,0.4-0.8,0.6-1.2,0.3    c-0.3-0.2-0.4-0.7-0.5-1.1c0-0.4,0-0.9-0.2-1.3c-0.2-0.4-0.5-0.6-0.8-0.7c-0.8-0.3-1.6-0.3-2.5-0.2c-1,0-2,0.1-3,0    c-0.2,0-0.4,0-0.6-0.2c-0.2-0.1-0.3-0.4-0.2-0.6c0.1-0.2,0.4-0.2,0.6-0.2c0.9,0,1.8-0.2,2.7-0.2C51.2,76.6,52.4,76.8,53.5,76.8z">				</path>			</g>			<g>				<path class="cals12" d="M30.8,83.7l8.8,0c1.3,0,2.3-1,2.3-2.3l0-3.3c0-1.3-1-2.3-2.3-2.3l-8.8,0c-1.3,0-2.3,1-2.3,2.3l0,3.3    C28.5,82.7,29.6,83.7,30.8,83.7z">				</path>				<path class="cals7" d="M31.5,83.5l8.3,0c1.2,0,2.2-1,2.2-2.2l0-3.5c0-1.2-1-2.2-2.2-2.2l-8.3,0c-1.2,0-2.2,1-2.2,2.2l0,3.5    C29.2,82.5,30.2,83.5,31.5,83.5z">				</path>				<path class="cals13" d="M30,76c-0.1,0.2-0.1,0.5-0.1,0.7l0,3.6c0,1.2,0.9,2.1,1.9,2.1l8.9,0c0.5,0,0.9-0.2,1.2-0.5    c-0.3,0.8-1,1.4-1.8,1.4l-8.9,0c-1.1,0-1.9-1-1.9-2.1l0-3.6C29.3,77,29.6,76.4,30,76z">				</path>				<path class="cals14" d="M38.9,76.5c0.4,0,0.8,0,1.1,0.1c0.8,0.3,1.3,1.4,1.3,2.3c0,0.5,0,1.1-0.3,1.5c-0.3,0.4-0.8,0.6-1.2,0.3    c-0.3-0.2-0.4-0.7-0.5-1.1c0-0.4,0-0.9-0.2-1.3c-0.2-0.4-0.5-0.6-0.8-0.7c-0.8-0.3-1.6-0.3-2.5-0.2c-1,0-2,0.1-3,0    c-0.2,0-0.4,0-0.6-0.2c-0.2-0.1-0.3-0.4-0.2-0.6c0.1-0.2,0.4-0.2,0.6-0.2c0.9,0,1.8-0.2,2.7-0.2C36.5,76.3,37.7,76.5,38.9,76.5z">				</path>			</g>			<g>				<path class="cals12" d="M60.2,94.3l8.8,0c1.3,0,2.3-1,2.3-2.3l0-3.3c0-1.3-1-2.3-2.3-2.3l-8.8,0c-1.3,0-2.3,1-2.3,2.3l0,3.3    C57.9,93.3,58.9,94.3,60.2,94.3z">				</path>				<path class="cals7" d="M60.8,94.1l8.3,0c1.2,0,2.2-1,2.2-2.2l0-3.5c0-1.2-1-2.2-2.2-2.2l-8.3,0c-1.2,0-2.2,1-2.2,2.2l0,3.5    C58.6,93.1,59.6,94.1,60.8,94.1z">				</path>				<path class="cals13" d="M59.4,86.6c-0.1,0.2-0.1,0.5-0.1,0.7l0,3.6c0,1.2,0.9,2.1,1.9,2.1l8.9,0c0.5,0,0.9-0.2,1.2-0.5    c-0.3,0.8-1,1.4-1.8,1.4l-8.9,0c-1.1,0-1.9-1-1.9-2.1l0-3.6C58.6,87.6,58.9,87,59.4,86.6z">				</path>				<path class="cals14" d="M68.2,87.1c0.4,0,0.8,0,1.1,0.1c0.8,0.3,1.3,1.4,1.3,2.3c0,0.5,0,1.1-0.3,1.5c-0.3,0.4-0.8,0.6-1.2,0.3    c-0.3-0.2-0.4-0.7-0.5-1.1c0-0.4,0-0.9-0.2-1.3c-0.2-0.4-0.5-0.6-0.8-0.7C66.9,88,66,88,65.2,88.1c-1,0-2,0.1-3,0    c-0.2,0-0.4,0-0.6-0.2c-0.2-0.1-0.3-0.4-0.2-0.6c0.1-0.2,0.4-0.2,0.6-0.2c0.9,0,1.8-0.2,2.7-0.2C65.9,86.9,67,87.1,68.2,87.1z">				</path>			</g>			<g>				<path class="cals12" d="M45.4,94.4l8.8,0c1.3,0,2.3-1,2.3-2.3l0-3.3c0-1.3-1-2.3-2.3-2.3l-8.8,0c-1.3,0-2.3,1-2.3,2.3l0,3.3    C43.1,93.4,44.2,94.4,45.4,94.4z">				</path>				<path class="cals7" d="M46,94.2l8.3,0c1.2,0,2.2-1,2.2-2.2l0-3.5c0-1.2-1-2.2-2.2-2.2l-8.3,0c-1.2,0-2.2,1-2.2,2.2l0,3.5    C43.8,93.2,44.8,94.2,46,94.2z">				</path>				<path class="cals13" d="M44.6,86.7c-0.1,0.2-0.1,0.5-0.1,0.7l0,3.6c0,1.2,0.9,2.1,1.9,2.1l8.9,0c0.5,0,0.9-0.2,1.2-0.5    c-0.3,0.8-1,1.4-1.8,1.4l-8.9,0c-1.1,0-1.9-1-1.9-2.1l0-3.6C43.9,87.7,44.2,87.1,44.6,86.7z">				</path>				<path class="cals14" d="M53.4,87.2c0.4,0,0.8,0,1.1,0.1c0.8,0.3,1.3,1.4,1.3,2.3c0,0.5,0,1.1-0.3,1.5c-0.3,0.4-0.8,0.6-1.2,0.3    c-0.3-0.2-0.4-0.7-0.5-1.1c0-0.4,0-0.9-0.2-1.3c-0.2-0.4-0.5-0.6-0.8-0.7c-0.8-0.3-1.6-0.3-2.5-0.2c-1,0-2,0.1-3,0    c-0.2,0-0.4,0-0.6-0.2c-0.2-0.1-0.3-0.4-0.2-0.6c0.1-0.2,0.4-0.2,0.6-0.2c0.9,0,1.8-0.2,2.7-0.2C51.1,87,52.3,87.2,53.4,87.2z">				</path>			</g>			<g>				<path class="cals12" d="M30.7,94.2l8.8,0c1.3,0,2.3-1,2.3-2.3l0-3.3c0-1.3-1-2.3-2.3-2.3l-8.8,0c-1.3,0-2.3,1-2.3,2.3l0,3.3    C28.5,93.1,29.5,94.2,30.7,94.2z">				</path>				<path class="cals7" d="M31.4,93.9l8.3,0c1.2,0,2.2-1,2.2-2.2l0-3.5c0-1.2-1-2.2-2.2-2.2l-8.3,0c-1.2,0-2.2,1-2.2,2.2l0,3.5    C29.1,92.9,30.1,93.9,31.4,93.9z">				</path>				<path class="cals13" d="M29.9,86.5c-0.1,0.2-0.1,0.5-0.1,0.7l0,3.6c0,1.2,0.9,2.1,1.9,2.1l8.9,0c0.5,0,0.9-0.2,1.2-0.5    c-0.3,0.8-1,1.4-1.8,1.4l-8.9,0c-1.1,0-1.9-1-1.9-2.1l0-3.6C29.2,87.5,29.5,86.9,29.9,86.5z">				</path>				<path class="cals14" d="M38.8,87c0.4,0,0.8,0,1.1,0.1c0.8,0.3,1.3,1.4,1.3,2.3c0,0.5,0,1.1-0.3,1.5c-0.3,0.4-0.8,0.6-1.2,0.3    c-0.3-0.2-0.4-0.7-0.5-1.1s0-0.9-0.2-1.3c-0.2-0.4-0.5-0.6-0.8-0.7c-0.8-0.3-1.6-0.3-2.5-0.2c-1,0-2,0.1-3,0    c-0.2,0-0.4,0-0.6-0.2c-0.2-0.1-0.3-0.4-0.2-0.6c0.1-0.2,0.4-0.2,0.6-0.2c0.9,0,1.8-0.2,2.7-0.2C36.4,86.8,37.6,87,38.8,87z">				</path>			</g>		</g>		<path class="cals2" d="M52,50.2c-0.2,0-1.2,0-1.4,0c-2.2,0-4.4-0.8-6-2.2c1.3,2.4,4,4,6.7,3.9c2.7,0,5.4-1.5,6.7-3.9  C56.3,49.4,54.2,50.2,52,50.2z">		</path>		<g>			<path class="cals17" d="M29.6,23.8c0.1-0.1,0.1-0.1,0.2-0.3c0-0.1,0.1-0.2,0.1-0.3c0.1-0.2,0.1-0.4,0.2-0.7c0.1-0.5,0.2-0.9,0.2-1.4   c0.1-0.9,0.1-1.8,0.2-2.8c0.1-0.9,0.2-1.8,0.4-2.7c0.2-0.8,0.4-1.6,1-2.1c0.3-0.2,0.7-0.5,1.1-0.6c0.3-0.1,0.5-0.2,0.7-0.4   c0.1-0.1,0.2-0.2,0.3-0.2c0,0,0.1-0.1,0.1-0.1c0.1-0.1,0.1-0.1,0.2-0.2c0.1-0.1,0-0.3-0.1-0.3c-0.1,0-0.1,0-0.2,0   c-0.1,0-0.1,0-0.2,0c-0.1,0-0.2,0-0.3,0.1c-0.1,0-0.2,0.1-0.3,0.1c-0.2,0.1-0.3,0.1-0.5,0.2c-0.4,0.2-0.8,0.4-1.1,0.6   c-0.4,0.3-0.7,0.6-1,1c-0.3,0.4-0.4,0.8-0.5,1.3c-0.5,1.9-0.6,3.8-0.7,5.8c0,0.5-0.1,1-0.1,1.6c0,0.1,0,0.3,0,0.4   c0,0.1,0,0.3,0,0.4c0,0.1,0,0.3,0,0.4c0,0.1,0,0.1,0,0.2c0,0.1,0,0.1,0.1,0.2C29.4,23.8,29.5,23.8,29.6,23.8L29.6,23.8z">			</path>		</g>		<path class="cals3" d="M27.1,24.7c-0.3,1.1,0,2.3,0.6,3.3c-0.9,1.8-1.4,3.7-1.7,5.7c0,0.1,0,0.2,0,0.3c0,0.1,0.1,0.2,0.2,0.2  c0.3,0.2,0.7,0.4,1,0.6c0.1-0.3,0.2-0.6,0.3-1c0,0.4,0,0.8,0,1.2c0.8,0.1,1.6,0.2,2.4,0.2c0-1,0-1.9,0-2.9c0.2,0.9,0.4,1.9,0.6,2.9  c0.6-0.1,1.2-0.1,1.9-0.2c-0.2-2.2-0.8-4.4-1.7-6.4c0-0.1-0.1-0.2,0-0.3c0-0.1,0.1-0.1,0.2-0.2c0.6-0.6,0.8-1.5,0.8-2.4  c0-0.7-0.1-1.4-0.4-2C30.1,21.8,27.6,22.9,27.1,24.7z">		</path>		<path class="cals4" d="M27.9,24.1c-0.3,0.5-0.5,1.1-0.5,1.7c0,0.6,0.2,1.2,0.6,1.6c-0.3-0.8-0.3-1.7,0.1-2.5c0.2-0.5,0.6-0.9,1-1.1  c0.5-0.2,1-0.2,1.4,0.1c0,0-0.1-0.3-0.1-0.4c-0.1-0.1-0.2-0.3-0.3-0.4C30,23.1,29.8,23,29.4,23C28.8,23,28.2,23.5,27.9,24.1z">		</path>		<path class="cals4" d="M26.5,33.1c0.5-1.3,1-2.6,1.7-3.9c-0.1,0.7-0.3,1.5-0.4,2.2c0.2-0.5,0.4-1.1,0.6-1.6c-0.1,1.3-0.2,2.6-0.3,3.9  c0.3-1.4,0.6-2.7,1-4.1c0,1,0,2.1,0,3.1c0.1-1.5,0.3-2.9,0.4-4.4c0,0.2-1.4-0.1-1.5,0c-0.3,0.1-0.5,1.1-0.6,1.4  C27,30.8,26.7,31.9,26.5,33.1z">		</path>		<path class="cals0" d="M88.9,29.2c0-1.4,0-2.7,0.3-4.1c0-0.1,0.1-0.3,0.2-0.4c0.2-0.1,0.4,0.1,0.5,0.3c0.3,0.7,0.4,1.5,0.4,2.3  c0,0.7,0.1,1.4,0.1,2.1c0.2-0.4,0.9-0.5,1.3-0.1c0.4,0.3,0.4,0.9,0.3,1.4c0.4-0.1,0.8,0.2,1,0.5c0.2,0.4,0.2,0.8,0.1,1.2  c-0.2,2.4-1.3,4.6-2.6,6.6c-0.2,0.2-0.3,0.5-0.6,0.6c-0.2,0.1-0.6,0.2-0.8,0c-0.2-0.2-0.2-0.4-0.2-0.6c-0.1-0.7,0.1-1.4,0.1-2.1  c0-0.9,0-1.7,0-2.6C88.9,32.6,88.9,30.9,88.9,29.2z">		</path>		<g>			<path class="cals18" d="M42,37.4c0.9,1.2,1.2,2.8,1.3,4.3c0.1,1.6,0.1,3.3-0.5,4.8c-0.7,1.4-2.1,2.6-3.6,2.4   c-0.8-0.1-1.5-0.5-2.1-1.1c-0.6-0.6-1-1.3-1.4-2.1c-0.7-1.5-1.2-3.1-1.4-4.8c-0.1-0.7-0.1-1.4,0.1-2.1c0.4-1.6,1.8-2.7,3.4-2.7   c0.7,0,1.5-0.2,2.2,0C40.7,36.2,41.5,36.7,42,37.4z">			</path>			<path class="cals19" d="M34.3,40.8c-0.1-0.7-0.1-1.4,0.1-2.1c0.1-0.6,0.4-1.1,0.8-1.5c-0.1,0.1-0.1,0.3-0.1,0.4   c-0.2,0.7-0.1,1.4-0.1,2.1c0.2,1.7,0.6,3.3,1.4,4.8c0.4,0.7,0.8,1.5,1.4,2.1c0.6,0.6,1.3,1,2.1,1.1c1.1,0.2,2.2-0.4,3-1.4   c0,0,0,0.1,0,0.1c-0.7,1.4-2.1,2.6-3.6,2.4c-0.8-0.1-1.5-0.5-2.1-1.1c-0.6-0.6-1-1.3-1.4-2.1C34.9,44.1,34.4,42.5,34.3,40.8z">			</path>			<path class="cals19" d="M43.1,40.3c-2.6-1.4-5-0.8-6.8,0.7c-0.7,0.5-1,1.5-1.3,2.1c-0.2-0.5-0.5-2.2-0.4-2.7c0.2-0.4,0.5-0.8,0.9-1   c0.7-0.4,1.7-2,2.6-2.2c0.9-0.1,1.9-0.1,2.8,0c0.4,0,1,0.7,1.4,0.8c0.3,0.1,0.5,0.9,0.7,1.2c0.1,0.1,0.1,0.2,0.1,0.4   C43.1,39.8,43.1,40.1,43.1,40.3z">			</path>			<path class="cals2" d="M42.5,39.5c0.3,0.6,0.3,1.3,0.3,1.9c0,0.9-0.2,1.8-0.7,2.4c-0.5,0.7-1.4,1.1-2.2,0.7   c-0.2-0.1-0.4-0.3-0.6-0.5c-0.9-1-1.2-2.4-1-3.7c0.1-0.6,0.4-1.2,0.9-1.6C40.3,37.9,41.9,38.2,42.5,39.5z">			</path>			<path class="cals11" d="M42,40.7c0,0.2,0,0.4-0.1,0.5c-0.1,0.1-0.2,0.1-0.3,0.1c-0.3,0-0.6-0.2-0.8-0.5c-0.3-0.3-0.5-0.7-0.6-1.2   c-0.1-0.7,0.5-1.2,1.1-0.8C41.8,39.1,42,40.1,42,40.7z">			</path>			<path class="cals20" d="M42.4,37.7c-0.6-0.9-1.4-1.6-2.4-2c-0.8-0.3-1.8-0.4-2.7-0.3c-0.8,0.1-1.7,0.3-2.3,0.9   c-0.6,0.5-1,1.3-1.1,2.1c-0.1,0.8,0,1.6,0.1,2.4c0.1,0.6,0.1,0.7,0.2,1.3c0.7-0.8,1.2-2.5,3.3-3.8c2.3-1.5,5.1-0.5,6,2.5   c-0.1-0.2-0.2-1.2-0.3-1.4C43,38.8,42.8,38.2,42.4,37.7z">			</path>			<g>				<path class="cals21" d="M33.9,38.5c0.1-0.8,0.5-1.6,1.1-2.1c0.3-0.3,0.7-0.4,1-0.6c-0.6,0.5-0.9,1.3-1,2c-0.1,0.8,0,1.6,0.1,2.4    c0.1,0.6,0,0,0.1,0.5c-0.3,0.4-0.7,1.2-1,1.5c-0.1-0.6-0.1-0.7-0.2-1.3C33.8,40.1,33.8,39.3,33.9,38.5z">				</path>			</g>			<path class="cals22" d="M41,36.7c0.7,0.5,1.2,1.1,1.5,1.8c0,0.1,0,0.2-0.1,0.2c-0.1,0-0.1,0-0.1-0.1c-1.1-1-2.2-2.1-3.7-2.6   c-0.1,0-0.3-0.1-0.3-0.2c0.4-0.2,1,0.1,1.4,0.2C40.1,36.2,40.6,36.5,41,36.7z">			</path>		</g>		<g>			<path class="cals18" d="M64.9,37.2c0.9,1.2,1.2,2.8,1.3,4.3c0.1,1.6,0.1,3.3-0.5,4.8c-0.7,1.4-2.1,2.6-3.6,2.4   c-0.8-0.1-1.5-0.5-2.1-1.1c-0.6-0.6-1-1.3-1.4-2.1c-0.7-1.5-1.2-3.1-1.4-4.8c-0.1-0.7-0.1-1.4,0.1-2.1c0.4-1.6,1.8-2.7,3.4-2.7   c0.7,0,1.5-0.2,2.2,0C63.7,36,64.4,36.5,64.9,37.2z">			</path>			<path class="cals19" d="M57.2,40.6c-0.1-0.7-0.1-1.4,0.1-2.1c0.1-0.6,0.4-1.1,0.8-1.5c-0.1,0.1-0.1,0.3-0.1,0.4   c-0.2,0.7-0.1,1.4-0.1,2.1c0.2,1.7,0.6,3.3,1.4,4.8c0.4,0.7,0.8,1.5,1.4,2.1c0.6,0.6,1.3,1,2.1,1.1c1.1,0.2,2.2-0.4,3-1.4   c0,0,0,0.1,0,0.1c-0.7,1.4-2.1,2.6-3.6,2.4c-0.8-0.1-1.5-0.5-2.1-1.1c-0.6-0.6-1-1.3-1.4-2.1C57.9,43.9,57.4,42.3,57.2,40.6z">			</path>			<path class="cals19" d="M66.1,40.2c-2.6-1.4-5-0.8-6.8,0.7c-0.7,0.5-1,1.5-1.3,2.1c-0.2-0.5-0.5-2.2-0.4-2.7c0.2-0.4,0.5-0.8,0.9-1   c0.7-0.4,1.7-2,2.6-2.2c0.9-0.1,1.9-0.1,2.8,0c0.4,0,1,0.7,1.4,0.8c0.3,0.1,0.5,0.9,0.7,1.2c0.1,0.1,0.1,0.2,0.1,0.4   C66,39.6,66.1,39.9,66.1,40.2z">			</path>			<path class="cals2" d="M65.4,39.3c0.3,0.6,0.3,1.3,0.3,1.9c0,0.9-0.2,1.8-0.7,2.4c-0.5,0.7-1.4,1.1-2.2,0.7   c-0.2-0.1-0.4-0.3-0.6-0.5c-0.9-1-1.2-2.4-1-3.7c0.1-0.6,0.4-1.2,0.9-1.6C63.3,37.7,64.9,38.1,65.4,39.3z">			</path>			<path class="cals11" d="M65,40.5c0,0.2,0,0.4-0.1,0.5c-0.1,0.1-0.2,0.1-0.3,0.1c-0.3,0-0.6-0.2-0.8-0.5c-0.3-0.3-0.5-0.7-0.6-1.2   c-0.1-0.7,0.5-1.2,1.1-0.8C64.7,38.9,65,39.9,65,40.5z">			</path>			<path class="cals20" d="M65.4,37.5c-0.6-0.9-1.4-1.6-2.4-2c-0.8-0.3-1.8-0.4-2.7-0.3c-0.8,0.1-1.7,0.3-2.3,0.9   c-0.6,0.5-1,1.3-1.1,2.1c-0.1,0.8,0,1.6,0.1,2.4c0.1,0.6,0.1,0.7,0.2,1.3c0.7-0.8,1.2-2.5,3.3-3.8c2.3-1.5,5.1-0.5,6,2.5   c-0.1-0.2-0.2-1.2-0.3-1.4C66,38.6,65.8,38.1,65.4,37.5z">			</path>			<g>				<path class="cals21" d="M56.9,38.3c0.1-0.8,0.5-1.6,1.1-2.1c0.3-0.3,0.7-0.4,1-0.6c-0.6,0.5-0.9,1.3-1,2c-0.1,0.8,0,1.6,0.1,2.4    c0.1,0.6,0,0,0.1,0.5c-0.3,0.4-0.7,1.2-1,1.5c-0.1-0.6-0.1-0.7-0.2-1.3C56.8,39.9,56.7,39.1,56.9,38.3z">				</path>			</g>			<path class="cals22" d="M64,36.5c0.7,0.5,1.2,1.1,1.5,1.8c0,0.1,0,0.2-0.1,0.2c-0.1,0-0.1,0-0.1-0.1c-1.1-1-2.2-2.1-3.7-2.6   c-0.1,0-0.3-0.1-0.3-0.2c0.4-0.2,1,0.1,1.4,0.2C63.1,36.1,63.6,36.3,64,36.5z">			</path>		</g>	</g></svg>