<svg xmlns="http://www.w3.org/2000/svg" version="1.1" xmlns:xlink="http://www.w3.org/1999/xlink" width="512" height="512" x="0" y="0" viewBox="0 0 64 64" style="enable-background:new 0 0 512 512" xml:space="preserve" class=""><g><linearGradient id="a" x1="9.5" x2="48" y1="2" y2="52" gradientUnits="userSpaceOnUse"><stop offset="0" stop-color="#fa1228"></stop><stop offset=".901" stop-color="#5a00d1"></stop></linearGradient><g fill="url(#a)"><path d="M58.586 2.586a2 2 0 1 1 2.828 2.828l-56 56a2 2 0 1 1-2.828-2.828z" fill="" opacity="1"></path><g fill-rule="evenodd" clip-rule="evenodd"><path d="M2 15C2 7.82 7.82 2 15 2s13 5.82 13 13-5.82 13-13 13S2 22.18 2 15zm13-9a9 9 0 1 0 0 18 9 9 0 0 0 0-18zM36 49c0-7.18 5.82-13 13-13s13 5.82 13 13-5.82 13-13 13-13-5.82-13-13zm13-9a9 9 0 1 0 0 18 9 9 0 0 0 0-18z" fill="" opacity="1"></path></g></g></g></svg>