<svg xmlns="http://www.w3.org/2000/svg" viewBox="0 0 133.97 118.9"><defs><style>.cls-1{fill:none;stroke:#eee6e0;stroke-miterlimit:10;stroke-width:3px;}.cls-2{fill:#45aab8;}.cls-3{fill:#047b8e;}.cls-4{fill:#055868;}.cls-5{fill:#388691;}.cls-6{fill:#e9c293;}.cls-7{fill:#fce2c0;}.cls-8{fill:#454444;}.cls-9{fill:#bbbdbe;}.cls-10{fill:#e4e6e6;}.cls-11{fill:#104d58;}.cls-12{fill:#1a93a5;}.cls-13{fill:#fdd5a5;}.cls-14{fill:#dbddde;}.cls-15{fill:#f1c793;}.cls-16{fill:#cfd1d2;}.cls-17{fill:#14707f;}.cls-18{fill:#fcd19c;}</style></defs><g id="Layer_2" data-name="Layer 2"><g id="Layer_1-2" data-name="Layer 1"><path class="cls-1" d="M29.6,101.2a5.38,5.38,0,0,0-5.4-5.4H16.6v10.8h7.6A5.38,5.38,0,0,0,29.6,101.2Z"/><path class="cls-1" d="M27.4,90.4A5.38,5.38,0,0,0,22,85H16.6V95.8H22A5.38,5.38,0,0,0,27.4,90.4Z"/><path class="cls-1" d="M1.5,117.4H44.7V74.2H1.5ZM16.6,95.8V85H22a5.4,5.4,0,1,1,0,10.8h2.2a5.4,5.4,0,1,1,0,10.8H16.6Z"/><path class="cls-1" d="M53.3,74.2v43.2H96.5V74.2Zm21.6,32.4a6.49,6.49,0,0,0,6.5-6.5,6.5,6.5,0,0,1-13,0V91.5a6.5,6.5,0,0,1,13,0,6.5,6.5,0,0,0-13,0v8.6A6.49,6.49,0,0,0,74.9,106.6Z"/><polygon class="cls-1" points="51.2 33.2 46.8 33.2 42.7 48.3 55.3 48.3 51.2 33.2"/><path class="cls-1" d="M70.6,22.4H27.4V65.6H70.6ZM40.4,56.9l2.4-8.6h0l4.1-15.1h4.3l4.1,15.1h0l2.4,8.6-2.4-8.6H42.7Z"/><path class="cls-2" d="M80.4,71.2c1.6-2.9,3.2-5.8,4.8-8.6Q99.6,37.7,114,12.9c.6-1,1.2-1.9,1.8-2.8.8.5,1.6.9,2.4,1.4.5.4,1.1.7,1.6,1.1-.6,1-1.2,2.1-1.8,3.1-1.7,2.9-3.4,5.7-5.1,8.6-1.1,1.8-2.1,3.7-3.1,5.5-2.3,4-4.6,8-6.9,11.9L95.1,55.2c-1.6,2.7-3.2,5.5-4.7,8.2-1.1,1.8-2.1,3.7-3.2,5.5-.6,1.1-1.2,2.2-1.8,3.4-.7-.2-1.5-.3-2.2-.5C82.3,71.5,81.3,71.8,80.4,71.2Z"/><path class="cls-3" d="M128.2,17.4C123.1,26.2,118,35.1,112.8,44L94.2,76.4a1.79,1.79,0,0,1-.5.7,9.12,9.12,0,0,0-3.5-1.2h0c-.1,0-.1,0-.2-.1l-1-.3.5-.5c.9-1.6,1.8-3.2,2.7-4.7,1.7-3,3.5-5.9,5.2-8.9,1.8-3.2,3.6-6.3,5.4-9.5,1.2-2.1,2.5-4.2,3.7-6.3,2.2-3.7,4.3-7.5,6.4-11.2,1.9-3.2,3.8-6.5,5.7-9.7,1.5-2.5,2.9-5,4.3-7.6a12.44,12.44,0,0,0,1-2c.7.3,1.4.7,2.1,1A12.66,12.66,0,0,1,128.2,17.4Z"/><path class="cls-4" d="M133.9,7.7h0a.77.77,0,0,1-.2.3c-1.2,2.1-2.5,4.1-3.7,6.2-.7-.4-1.5-.9-2.2-1.3a22.63,22.63,0,0,1-2-1.3c.1-.1.3-.1.3-.2,1.3-2.2,2.5-4.4,3.7-6.6,1.1.6,2.1,1.1,3.2,1.7A5.38,5.38,0,0,1,133.9,7.7Z"/><path class="cls-5" d="M117.6,7c.1-.2.1-.4.3-.6,1.2-2.1,2.5-4.3,3.7-6.4a9.74,9.74,0,0,0,1.1.5c.2.2.3.4.5.5.8.5,1.6.9,2.4,1.4-.8,1.5-1.6,2.9-2.4,4.4-.5.9-.8,1.7-1.3,2.6-.7-.4-1.4-.7-2.1-1.1S118.3,7.4,117.6,7Z"/><path class="cls-6" d="M90.2,75.9a11.18,11.18,0,0,1,3.5,1.2c-.2.2-.4.5-.6.7-3.2,3.2-6.4,6.3-9.7,9.4-1.3,1.3-2.8,2.5-4.1,3.8-.1-.1-.1-.2-.2-.3.4-.4.8-1,1.1-1.3,1.5-1.3,2.5-3.1,3.7-4.6s2.5-3.2,3.7-4.8c1-1.2,2-2.5,2.9-3.7A1.38,1.38,0,0,0,90.2,75.9Z"/><path class="cls-7" d="M80.4,71.2c.9.6,1.9.3,2.9.5-.4,1-.8,2.1-1.2,3.1-.7,1.7-1.3,3.3-2,5s-1.3,3.5-1.9,5.3c-.5,1.5-1,3-1.5,4.6-.2,0-.3-.1-.5-.1.2-1.2.4-2.4.7-3.6,1.1-4.8,2.3-9.5,3.4-14.3A.75.75,0,0,0,80.4,71.2Z"/><path class="cls-8" d="M76.2,89.7c.2,0,.3.1.5.1l.3.3a6.47,6.47,0,0,1,1.3.4c.3.1.5.2.8.3.1.1.1.2.2.3a2.19,2.19,0,0,1-.3.5c-.9.9-1.8,1.7-2.7,2.6a1.34,1.34,0,0,1-.9.2c-.1,0-.3-.4-.3-.6C75.5,92.5,75.9,91.1,76.2,89.7Z"/><path class="cls-9" d="M127.8,12.9c.7.4,1.5.9,2.2,1.3-.6,1.1-1.2,2.1-1.8,3.2-.7-.5-1.5-.9-2.2-1.4C126.6,14.9,127.2,13.9,127.8,12.9Z"/><path class="cls-10" d="M117.6,7c.7.4,1.5.9,2.2,1.3-.5,1.1-1.1,2.1-1.6,3.2-.8-.5-1.6-.9-2.4-1.4C116.4,9,117,8,117.6,7Z"/><path class="cls-11" d="M125.5,2.3c-.8-.5-1.6-.9-2.4-1.4-.2-.1-.3-.3-.5-.5a8.33,8.33,0,0,1,1.5.4,29.73,29.73,0,0,1,9.5,6.1c.3.2.6.5.1.8a10.47,10.47,0,0,0-.8-1.1c-1-.6-2.1-1.1-3.2-1.7C128.4,4,127,3.2,125.5,2.3Z"/><path class="cls-11" d="M133.7,8c0-.1.1-.1.1-.2A.35.35,0,0,0,133.7,8Z"/><path class="cls-12" d="M123.9,14.9a18.65,18.65,0,0,1-1,2c-1.4,2.5-2.9,5.1-4.3,7.6-1.9,3.2-3.8,6.5-5.7,9.7-2.2,3.7-4.3,7.5-6.4,11.2-1.2,2.1-2.5,4.2-3.7,6.3-1.8,3.2-3.6,6.4-5.4,9.5s-3.5,6-5.2,8.9c-.9,1.6-1.8,3.2-2.7,4.7a1.21,1.21,0,0,1-.5.5c-.1-.1-.3-.1-.4-.2-.4-1.2-1.6-1.6-2.5-2.3,0-.1,0-.1-.1-.1h0a2.65,2.65,0,0,1-.5-.6c.6-1.1,1.2-2.3,1.8-3.4,1-1.9,2.1-3.7,3.2-5.5,1.6-2.7,3.2-5.5,4.7-8.2L103,41.5c2.3-4,4.6-8,6.9-11.9,1.1-1.8,2.1-3.7,3.1-5.5,1.7-2.9,3.4-5.7,5.1-8.6.6-1,1.2-2.1,1.8-3.1.7.4,1.5.8,2.2,1.2A20.28,20.28,0,0,0,123.9,14.9Z"/><path class="cls-13" d="M85.5,72.2a2.65,2.65,0,0,1,.5.6c-.3.5-.5.9-.8,1.4a36.83,36.83,0,0,1-1.5,3.5c-.8,1.6-1.6,3.1-2.4,4.6l-.9,1.8-.9,1.5a10.41,10.41,0,0,1-.6,1.6c-.6,1-1.3,1.9-1.9,2.9l-.3-.3c.5-1.5,1-3.1,1.5-4.6.6-1.8,1.3-3.5,1.9-5.3s1.3-3.3,2-5c.4-1,.8-2.1,1.2-3.1C84,71.9,84.7,72.1,85.5,72.2Z"/><path class="cls-14" d="M122,13.7c-.7-.4-1.5-.8-2.2-1.2-.5-.4-1.1-.7-1.6-1.1.5-1.1,1.1-2.1,1.6-3.2.7.4,1.4.7,2.1,1.1s1.3.8,1.9,1.2C123.2,11.6,122.6,12.6,122,13.7Z"/><path class="cls-15" d="M88.6,75.2c.1.1.3.1.4.2.3.1.7.2,1,.3l.2.2h0a2.18,2.18,0,0,1,.4.5c-1,1.2-2,2.4-2.9,3.7-1.2,1.6-2.4,3.3-3.7,4.8s-2.2,3.3-3.7,4.6a15,15,0,0,0-1.1,1.3c-.3-.1-.5-.2-.8-.3,1.2-1.8,2.4-3.5,3.6-5.3,1-1.5,2-3.1,2.9-4.7,1.1-1.6,2.1-3.3,3.2-4.9A1,1,0,0,1,88.6,75.2Z"/><path class="cls-16" d="M122,13.7c.6-1,1.2-2.1,1.8-3.1.7.3,1.3.7,2,1a22.63,22.63,0,0,1,2,1.3c-.6,1-1.2,2.1-1.8,3.1-.7-.3-1.4-.7-2.1-1A12.74,12.74,0,0,0,122,13.7Z"/><path class="cls-6" d="M90.2,75.9c-.1,0-.1,0-.2-.1A.31.31,0,0,1,90.2,75.9Z"/><path class="cls-17" d="M125.8,11.6c-.7-.3-1.3-.7-2-1s-1.3-.8-1.9-1.2a21,21,0,0,1,1.3-2.6c.8-1.5,1.6-2.9,2.4-4.4,1.4.9,2.9,1.7,4.3,2.6-1.2,2.2-2.5,4.4-3.7,6.6Z"/><path class="cls-18" d="M88.6,75.2a2.19,2.19,0,0,0-.5.3c-1.1,1.6-2.2,3.2-3.2,4.9-1,1.5-1.9,3.1-2.9,4.7-1.2,1.8-2.4,3.5-3.6,5.3a6.47,6.47,0,0,1-1.3-.4c.6-1,1.3-1.9,1.9-2.9a10.41,10.41,0,0,0,.6-1.6,11.91,11.91,0,0,1,.9-1.5l.9-1.8c.8-1.5,1.7-3.1,2.4-4.6a36.83,36.83,0,0,0,1.5-3.5,10,10,0,0,1,.8-1.4h0l.1.1C87,73.7,88.2,74,88.6,75.2Z"/><path class="cls-13" d="M86.1,72.9H86C86.1,72.8,86.1,72.9,86.1,72.9Z"/></g></g></svg>