<?xml version="1.0" encoding="utf-8"?>
<!-- Generator: Adobe Illustrator 25.1.0, SVG Export Plug-In . SVG Version: 6.00 Build 0)  -->
<svg version="1.1" id="Layer_1" xmlns="http://www.w3.org/2000/svg" xmlns:xlink="http://www.w3.org/1999/xlink" x="0px" y="0px"
	 viewBox="0 0 512 512" style="enable-background:new 0 0 512 512;" xml:space="preserve">
<style type="text/css">
	.st0{fill:#E8063C;}
</style>
<g>
	<path class="st0" d="M223.7,124.8c-48,11.2-86.7,49.3-98.5,97c-11.8,47.9,1.7,96.7,36.3,130.6c12.2,12,19.5,31.2,19.5,51.4v3.2
		c0,13.3,5.8,25.3,15,33.5V467c0,24.8,20.2,45,45,45h30c24.8,0,45-20.2,45-45v-26.5c9.2-8.2,15-20.2,15-33.5v-3.3
		c0-19.9,7.7-39.5,20.6-52.4C377,325.9,391,292,391,256C391,169.9,311.2,104.4,223.7,124.8z M286,467c0,8.3-6.7,15-15,15h-30
		c-8.3,0-15-6.7-15-15v-15h60V467z M330.3,330.2c-18.6,18.7-29.3,45.5-29.3,73.6v3.3c0,8.3-6.7,15-15,15h-60c-8.3,0-15-6.7-15-15
		v-3.2c0-28.5-10.4-55-28.5-72.8c-26.9-26.4-37.4-64.5-28.1-102c9.1-36.9,39-66.4,76.2-75C299.2,138,361,189.2,361,256
		C361,284,350.1,310.3,330.3,330.2z M139.3,118.1L96.9,75.7c-5.9-5.9-15.4-5.9-21.2,0c-5.9,5.9-5.9,15.4,0,21.2l42.4,42.4
		c5.9,5.9,15.4,5.9,21.2,0C145.2,133.5,145.2,124,139.3,118.1z M76,241H15c-8.3,0-15,6.7-15,15s6.7,15,15,15h61c8.3,0,15-6.7,15-15
		S84.3,241,76,241z M497,241h-61c-8.3,0-15,6.7-15,15s6.7,15,15,15h61c8.3,0,15-6.7,15-15S505.3,241,497,241z M436.3,75.7
		c-5.9-5.9-15.4-5.9-21.2,0l-42.4,42.4c-5.9,5.9-5.9,15.4,0,21.2c5.9,5.9,15.4,5.9,21.2,0l42.4-42.4C442.2,91,442.2,81.5,436.3,75.7
		z M256,0c-8.3,0-15,6.7-15,15v61c0,8.3,6.7,15,15,15s15-6.7,15-15V15C271,6.7,264.3,0,256,0z"/>
	<path class="st0" d="M256,181c-6.2,0-12.4,0.7-18.7,2.2c-25.9,6-47.5,27.3-53.9,53c-2,8,2.9,16.2,10.9,18.2c8,2,16.2-2.9,18.2-10.9
		c3.7-14.8,16.6-27.5,31.6-31c4-0.9,8-1.4,11.8-1.4c8.3,0,15-6.7,15-15S264.3,181,256,181z"/>
</g>
</svg>
