<?xml version="1.0" encoding="utf-8"?>
<!-- Generator: Adobe Illustrator 25.1.0, SVG Export Plug-In . SVG Version: 6.00 Build 0)  -->
<svg version="1.1" id="Layer_1" xmlns="http://www.w3.org/2000/svg" xmlns:xlink="http://www.w3.org/1999/xlink" x="0px" y="0px"
	 viewBox="0 0 13.1 12.2" style="enable-background:new 0 0 13.1 12.2;" xml:space="preserve">
<style type="text/css">
	.st0{fill:#E9063D;}
</style>
<g id="Layer_2_1_">
	<g id="Layer_1-2">
		<path class="st0" d="M3.8,10.6c-0.8-0.4-1.5-1-2-1.7C1.3,8,1.1,7.1,1.1,6.2C1,4.8,1.6,3.4,2.6,2.4c1.1-1,2.5-1.4,4-1.3
			c1,0,1.9,0.1,2.9,0.5c0.7,0.3,1.4,0.8,1.9,1.4c0.5,0.6,0.7,1.3,0.7,2c0,0.6-0.2,1.1-0.6,1.5C10.9,6.8,10.3,7,9.7,6.9h-6
			c0,0.7,0.3,1.3,0.8,1.7C5.2,9,6,9.2,6.8,9.2c0.9,0,1.9-0.2,2.7-0.7c0.3-0.2,0.6-0.4,1-0.4c0.3,0,0.5,0.1,0.7,0.3
			c0.2,0.2,0.3,0.5,0.3,0.7c0,0.3-0.1,0.6-0.4,0.8c-0.6,0.4-1.2,0.8-1.9,1c-0.8,0.2-1.6,0.3-2.4,0.3C5.7,11.2,4.7,11,3.8,10.6z
			 M8.8,5.1c0.2,0,0.3,0,0.5-0.1c0.1-0.1,0.2-0.3,0.1-0.4c0-0.5-0.4-0.9-0.8-1.1C8,3.2,7.2,3,6.5,3.1C5.8,3,5.1,3.2,4.4,3.6
			C4,4,3.7,4.5,3.7,5.1H8.8z"/>
	</g>
</g>
</svg>
