<?xml version="1.0" encoding="utf-8"?>
<!-- Generator: Adobe Illustrator 25.1.0, SVG Export Plug-In . SVG Version: 6.00 Build 0)  -->
<svg version="1.1" id="Layer_1" xmlns="http://www.w3.org/2000/svg" xmlns:xlink="http://www.w3.org/1999/xlink" x="0px" y="0px"
	 viewBox="0 0 100 100" style="enable-background:new 0 0 100 100;" xml:space="preserve">
<style type="text/css">
	.st0{fill:#FFFFFF;}
	.st1{fill:#E2C9B5;}
</style>
<path class="st0" d="M68.4,84.7c-4.2-1.7-6.7-4.9-7.6-9.3c0-0.2-0.1-0.3-0.1-0.5c0,0,0,0-0.1-0.1c-9.2,0-18.5,0-27.7,0
	c-0.4,1.2-0.7,2.5-1.2,3.6c-1.9,3.9-4.9,6.2-9.2,7c-0.1,0-0.3,0.1-0.4,0.2c-1,0-2.1,0-3.1,0c-1-0.3-2-0.5-3-0.9
	c-4.2-1.7-6.7-4.9-7.6-9.3c0-0.2-0.1-0.3-0.1-0.5c0,0,0,0-0.1-0.2c-0.3,0-0.8,0-1.2,0c-2.4,0-3.9-1.1-4.7-3.3c0-0.1-0.1-0.2-0.2-0.3
	c0-15.7,0-31.4,0-47.1c0.2-0.7,0.3-1.4,0.6-2.1c1.5-4,4.3-6.4,8.4-7.2c0.2,0,0.3-0.1,0.4-0.2c19.4,0,38.8,0,58.2,0
	c2.3,0.5,4.3,1.3,6.1,2.9c0.2,0.2,0.6,0.1,0.9,0.1c2.3,0,4.6,0,6.9,0c4.5,0,7.8,3.4,7.9,7.9c0,3,0,6,0,9c0,2.7-2,4.8-4.6,4.8
	s-4.6-2.1-4.6-4.8c0-0.9,0-1.9,0-2.8c0-2.8,2-4.7,4.7-4.8c0.4,0,0.9,0,1.3,0c0.7-4-2.1-6.4-5.2-6.2c-1.6,0.1-3.2,0-4.8,0
	C80,25.6,79,30.9,79.3,36c0.1,2.1,0,4.2,0,6.3c2.2,0.4,4.3,0.7,6.4,1.1c6.5,1.1,10.9,5.4,12,11.8c0,0.1,0.1,0.2,0.2,0.3
	c0,4.1,0,8.2,0,12.3c-0.1,0.4-0.2,0.8-0.4,1.2c-1,3.1-3.9,5.3-7.1,5.4c-1.6,0-3.3,0-4.9,0c-0.4,2.8-1.5,5.2-3.5,7.1
	c-1.9,1.9-4.1,3.1-6.8,3.5c-0.1,0-0.3,0.1-0.4,0.2c-1,0-2.1,0-3.1,0C70.4,85.3,69.4,85.1,68.4,84.7z"/>
<g>
	<path class="st1" d="M68.4,84.7c-4.2-1.7-6.7-4.9-7.6-9.3c0-0.2-0.1-0.3-0.1-0.5c0,0,0,0-0.1-0.1c-9.2,0-18.5,0-27.7,0
		c-0.4,1.2-0.7,2.5-1.2,3.6c-1.9,3.9-4.9,6.2-9.2,7c-0.1,0-0.3,0.1-0.4,0.2c-1,0-2.1,0-3.1,0c-1-0.3-2-0.5-3-0.9
		c-4.2-1.7-6.7-4.9-7.6-9.3c0-0.2-0.1-0.3-0.1-0.5c0,0,0,0-0.1-0.2c-0.3,0-0.8,0-1.2,0c-2.4,0-3.9-1.1-4.7-3.3
		c0-0.1-0.1-0.2-0.2-0.3c0-15.7,0-31.4,0-47.1c0.2-0.7,0.3-1.4,0.6-2.1c1.5-4,4.3-6.4,8.4-7.2c0.2,0,0.3-0.1,0.4-0.2
		c19.4,0,38.8,0,58.2,0c2.3,0.5,4.3,1.3,6.1,2.9c0.2,0.2,0.6,0.1,0.9,0.1c2.3,0,4.6,0,6.9,0c4.5,0,7.8,3.4,7.9,7.9c0,3,0,6,0,9
		c0,2.7-2,4.8-4.6,4.8s-4.6-2.1-4.6-4.8c0-0.9,0-1.9,0-2.8c0-2.8,2-4.7,4.7-4.8c0.4,0,0.9,0,1.3,0c0.7-4-2.1-6.4-5.2-6.2
		c-1.6,0.1-3.2,0-4.8,0C80,25.6,79,30.9,79.3,36c0.1,2.1,0,4.2,0,6.3c2.2,0.4,4.3,0.7,6.4,1.1c6.5,1.1,10.9,5.4,12,11.8
		c0,0.1,0.1,0.2,0.2,0.3c0,4.1,0,8.2,0,12.3c-0.1,0.4-0.2,0.8-0.4,1.2c-1,3.1-3.9,5.3-7.1,5.4c-1.6,0-3.3,0-4.9,0
		c-0.4,2.8-1.5,5.2-3.5,7.1c-1.9,1.9-4.1,3.1-6.8,3.5c-0.1,0-0.3,0.1-0.4,0.2c-1,0-2.1,0-3.1,0C70.4,85.3,69.4,85.1,68.4,84.7z
		 M63.6,48.6c0,3.1,0,6.1,0,9.2c-2,0-4,0-6,0c0,0.3-0.1,0.6-0.1,0.9c0,1.8,0,3.6,0,5.4c-0.1,2.5-2,4.5-4.5,4.5c-3.2,0-6.4,0.1-9.5,0
		c-2.5,0-4.4-2-4.5-4.5c0-2,0-4,0-6.1c0,0,0,0-0.1-0.1c-11.2,0-22.4,0-33.8,0c0,0.3,0,0.7,0,1c0,3.5,0,6.9,0,10.4
		c0,2,0.4,2.4,2.4,2.4c0.2,0,0.4,0,0.8,0c0.6-3.9,2.5-6.9,5.8-9c2.3-1.4,4.8-2,7.5-1.8c5.2,0.5,10.1,4.2,11.2,10.7
		c9.3,0,18.6,0,27.9,0c0.6-3.5,2.2-6.3,5.1-8.4c2.3-1.7,5-2.5,7.9-2.3c5.5,0.3,10.5,4.3,11.5,10.9c2-0.1,4.1,0,6.1-0.3
		c1.8-0.3,3.1-2.1,3.2-3.9c0.1-0.6,0-1.3,0-2c-2.9,0.2-5.4-0.4-7.3-2.6c-1.2-1.3-1.8-2.9-1.9-4.6c-0.2-3.8,2.1-6.8,6.4-8
		c-1.4-1.6-3.2-2.8-5.2-3.1c-4.2-0.8-8.4-1.7-12.8-1.6c-4,0.1-8,0-12,0c-0.3,0-0.7,0-1.1,0c0-0.5,0-0.8,0-1.2c0-3.1,0-6.3,0-9.4
		c0-4.5,3.4-7.8,7.9-7.9c2.5,0,4.9,0,7.4,0c0-1,0-2,0-3c-23.6,0-47.1,0-70.7,0c0,1,0,2,0,3c4,0,8.1,0,12.2,0c0,6.2,0,12.3,0,18.5
		c-4,0-8.1,0-12.2,0c0,1,0,2,0,3.1c11.2,0,22.5,0,33.9,0c0-0.3,0-0.7,0-1c0-5.1,0-10.3,0-15.4c0-3.2,1.9-5.1,5.1-5.1
		c2.8,0,5.5,0,8.3,0c3.2,0,5.1,1.9,5.1,5.1c0,5.1,0,10.2,0,15.3c0,0.4,0,0.7,0,1.2C59.6,48.6,61.6,48.6,63.6,48.6z M51.4,45.4
		c0-1,0-2,0-3c1,0,2,0,3,0c0-1.2,0-2.2,0-3.2c0-2.4,0-4.8,0-7.2c0-1.3-0.5-1.9-1.9-1.9c-2.9,0-5.7,0-8.6,0c-1.3,0-1.9,0.6-1.9,1.9
		c0,10.6,0,21.2,0,31.8c0,1.3,0.6,1.8,1.8,1.8c2.9,0,5.8,0,8.7,0c1.2,0,1.8-0.6,1.8-1.6c0-6,0-12.1,0-18.1c0-0.1,0-0.1-0.1-0.3
		C53.3,45.4,52.4,45.4,51.4,45.4z M68.8,17.7c-0.3,0-0.6,0-0.9,0c-18.2,0-36.5,0-54.7,0c-2.2,0-4.1,0.6-5.7,2.2
		c-0.2,0.2-0.5,0.5-0.8,0.9c22.6,0,45.1,0,67.7,0C72.9,18.8,71,17.9,68.8,17.7z M63.7,73.3c0,5.1,4.2,9.2,9.3,9.2
		c5.1,0,9.2-4.2,9.2-9.3c0-5.1-4.2-9.2-9.3-9.2C67.8,64,63.7,68.2,63.7,73.3z M20.5,64c-5.1,0-9.2,4.2-9.2,9.3
		c0,5.1,4.2,9.2,9.3,9.2s9.2-4.2,9.2-9.3C29.7,68.1,25.5,64,20.5,64z M76,42.3c0-4,0-8.1,0-12.3c-0.3,0-0.6,0-0.9,0
		c-2.2,0-4.4,0-6.6,0c-2.7,0-4.7,2-4.7,4.7c0,2.5,0,4.9,0,7.4c0,0.1,0,0.1,0.1,0.2C67.8,42.3,71.8,42.3,76,42.3z M14.3,30.1
		c-3,0-6.1,0-9.1,0c0,4,0,8.1,0,12.2c3,0,6,0,9.1,0C14.3,38.2,14.3,34.2,14.3,30.1z M5.1,51.7c0,1,0,1.9,0,3c11.3,0,22.5,0,33.8,0
		c0-1,0-1.9,0-3C27.7,51.7,16.4,51.7,5.1,51.7z M94,54.1c-0.2-0.7-0.6-0.9-1.3-0.9c-2.4,0.2-4.3,2.2-4.3,4.6c0,2.4,1.9,4.5,4.3,4.6
		c0.6,0,1.2,0,1.9,0C94.4,59.6,94.9,56.8,94,54.1z M86.8,30.1c-0.8,0.1-1.4,0.6-1.4,1.4c-0.1,1.1-0.1,2.2,0,3.3
		c0,0.9,0.7,1.5,1.5,1.5s1.5-0.6,1.6-1.5c0-1.5,0-3,0-4.7C87.8,30.1,87.3,30,86.8,30.1z M60.6,51.7c-1,0-1.9,0-3,0c0,1,0,1.9,0,3
		c1,0,1.9,0,3,0C60.6,53.7,60.6,52.7,60.6,51.7z"/>
	<path class="st1" d="M20.6,27c5.2,0,10.2,0,15.3,0c0,6.2,0,12.3,0,18.4c-5.1,0-10.2,0-15.3,0C20.6,39.2,20.6,33.1,20.6,27z
		 M23.6,30.1c0,4.1,0,8.1,0,12.2c3,0,6,0,9.1,0c0-4,0-8.1,0-12.2C29.7,30.1,26.7,30.1,23.6,30.1z"/>
	<path class="st1" d="M72.9,67.1c3.4,0,6.1,2.7,6.2,6.1c0,3.4-2.7,6.2-6.1,6.3c-3.4,0-6.2-2.7-6.2-6.1
		C66.8,69.9,69.5,67.1,72.9,67.1z M72.9,76.3c1.7,0,3.1-1.4,3.1-3.1s-1.4-3-3.1-3s-3.1,1.4-3,3.1C69.9,74.9,71.3,76.3,72.9,76.3z"/>
	<path class="st1" d="M14.3,73.3c0-3.4,2.7-6.1,6.1-6.2c3.4,0,6.2,2.7,6.3,6.1c0,3.4-2.7,6.2-6.1,6.2C17.1,79.4,14.3,76.7,14.3,73.3
		z M23.6,73.3c0-1.7-1.4-3.1-3.1-3.1s-3.1,1.4-3,3.1c0,1.7,1.4,3.1,3.1,3.1C22.2,76.3,23.6,74.9,23.6,73.3z"/>
</g>
</svg>
