<svg xmlns="http://www.w3.org/2000/svg" version="1.1" xmlns:xlink="http://www.w3.org/1999/xlink" width="512" height="512" x="0" y="0" viewBox="0 0 64 64" style="enable-background:new 0 0 512 512" xml:space="preserve" class=""><g><path d="M62 60h-6.585c.374-.652.561-1.39.514-2.153C55.848 56.342 55.7 54.048 55 43c0-2.771-1.104-7.685-8.494-9.472C44.098 32.942 38 31.204 38 28.73v-2.003c1.278-1.235 2.205-2.95 2.721-5.067C41.76 21.248 43 20.115 43 17.667c0-.881-.186-1.503-.405-1.945.383-1.32.405-2.75.405-3.93 0-1.358-.306-3.316-1.135-4.782.748-1.37.461-2.81.447-2.88a.997.997 0 0 0-1.095-.789c-.021.002-2.025.226-4.283-.397C35.45 2.317 33.791 2 32 2c-3.638 0-5.851.86-7.324 2.864C22.854 5.731 21 7.946 21 11c0 2.969.001 3.639.384 4.766-.21.439-.384 1.048-.384 1.901 0 2.448 1.24 3.581 2.279 3.993.516 2.117 1.443 3.831 2.721 5.066v2.003c0 2.476-6.076 4.207-8.505 4.798-7.392 1.787-8.495 6.702-8.493 9.41-.75 11.854-.867 13.713-.93 14.901-.047.77.14 1.511.513 2.162H2c-1.322 0-1.324 2 0 2h60c1.322 0 1.324-2 0-2zM28 28.73v-.572c.927.538 1.698.842 4 .842 2.301 0 3.074-.304 4-.841v.571c0 .851.307 1.648.905 2.394-.95 1.756-2.809 2.871-4.908 2.876h-.016c-2.095 0-3.955-1.1-4.914-2.84.618-.756.933-1.566.933-2.43zM25.705 6.596c.186-.075.346-.203.458-.369C26.89 5.149 28.001 4 32 4c1.531 0 2.994.283 4.23.817.333.143 2.086.554 4.109.563a2.055 2.055 0 0 1-.438.975.999.999 0 0 0-.03 1.25C40.647 8.623 41 10.488 41 11.792c0 .8-.012 1.664-.128 2.479-.175-.253-.357-.595-.537-.932-1.514-2.844-2.899-3.85-6.124-3.359-1.748.267-4.39.669-6.191-1.038a1.001 1.001 0 0 0-1.612.343c-1.035 2.502-2.091 4.077-3.335 4.976C23 13.664 23 12.814 23 11c0-2.182 1.36-3.867 2.705-4.404zm-1.472 13.261c-.206-.027-1.233-.266-1.233-2.19 0-.851.248-1.162.235-1.172 1.793-.879 3.215-2.528 4.503-5.268 2.326 1.408 5.052.992 6.776.729 1.996-.303 2.74-.152 4.057 2.322.521.979 1.103 2.072 2.238 2.332.085.174.191.501.191 1.057 0 1.924-1.027 2.163-1.211 2.188a1 1 0 0 0-.894.8c-.528 2.64-1.671 4.483-3.396 5.479-1.054.627-1.316.866-3.499.866-2.177 0-2.441-.237-3.5-.866-1.725-.996-2.868-2.839-3.396-5.479-.083-.417-.449-.739-.871-.798zM10.068 57.953c.073-1.363.229-3.819.932-14.953 0-3.823 2.408-6.426 6.966-7.528 3.375-.822 5.903-1.81 7.579-2.956C26.906 34.663 29.307 36 31.982 36h.021c2.673-.007 5.067-1.353 6.421-3.508 1.676 1.156 4.214 2.153 7.612 2.98 4.557 1.102 6.965 3.705 6.967 7.59.755 11.931.866 13.703.93 14.899A1.939 1.939 0 0 1 52 60h-1.953l.881-19.387A2.502 2.502 0 0 0 48.43 38H15.536a2.502 2.502 0 0 0-2.498 2.613L13.92 60H12c-1.108 0-2-.941-1.932-2.047zM15.922 60l-.885-19.478a.5.5 0 0 1 .5-.522h32.894a.5.5 0 0 1 .5.522L48.044 60H15.922z" fill="#000000" opacity="1" data-original="#000000" class=""></path><path d="M31.5 46c-1.125 0-2.235.39-3.123 1.098-.473.377-.481 1.182.001 1.565.713.566 1.122 1.418 1.122 2.337s-.409 1.771-1.122 2.337c-.48.38-.475 1.189-.001 1.565A5.033 5.033 0 0 0 31.5 56c2.757 0 5-2.243 5-5s-2.243-5-5-5zm-.901 7.855c.578-.826.901-1.813.901-2.855s-.323-2.029-.901-2.855c1.983-.629 3.901.879 3.901 2.855 0 1.974-1.917 3.484-3.901 2.855z" fill="#000000" opacity="1" data-original="#000000" class=""></path></g></svg>