<?xml version="1.0" encoding="utf-8"?>
<!-- Generator: Adobe Illustrator 25.1.0, SVG Export Plug-In . SVG Version: 6.00 Build 0)  -->
<svg version="1.1" id="Layer_1" xmlns="http://www.w3.org/2000/svg" xmlns:xlink="http://www.w3.org/1999/xlink" x="0px" y="0px"
	 viewBox="0 0 100 100" style="enable-background:new 0 0 100 100;" xml:space="preserve">
<style type="text/css">
	.st0{fill:#E3D4CE;}
</style>
<g>
	<path class="st0" d="M39.6,93.7c-0.6,0-1.1,0-1.7,0c-0.1,0-0.1-0.1-0.2-0.1c-2.5-0.8-3.6-2.3-3.6-4.9c0-0.8,0-1.7,0-2.5
		c-4.9,0-9.6,0-14.4,0c0,1,0,1.9,0,2.9c0,1.5-0.5,2.7-1.7,3.6c-0.6,0.5-1.4,0.7-2.2,1.1c-0.6,0-1.1,0-1.7,0c-2.9-0.9-3.8-3-3.8-5.9
		c0.1-7.9,0-15.8,0-23.7c0-0.3,0-0.7,0-1c-2-0.5-3.1-1.9-3.7-3.6c0-0.6,0-1.2,0-1.9c0.5-0.9,1-1.8,1.7-2.6c0.5-0.5,1.3-0.8,2-1.2
		c0-1,0-2,0-3.1c0-6.3,0-12.7,0-19c0-0.3-0.1-0.8-0.3-0.8c-1.9-0.6-2.8-1.9-3.4-3.7c0-0.6,0-1.1,0-1.7c0.5-1,0.8-2,1.4-2.6
		c1.7-1.9,3.6-3.6,5.4-5.4c0.2-0.2,0.5-0.5,0.8-0.5c0.5,0.1,1.1,0.2,1.4,0.6c0.4,0.5,0.2,1.1-0.2,1.6c-1.7,1.7-3.4,3.4-5.1,5.1
		c-0.8,0.7-1.2,1.5-0.8,2.6s1.3,1.4,2.4,1.4c10.1,0,20.2,0,30.3,0c1,0,1.9-0.3,2.3-1.3c0.4-1.1,0-1.9-0.8-2.7
		c-4.6-4.6-9.2-9.2-13.8-13.8c-1.9-1.8-4-1.9-5.9,0c-1.6,1.6-3.2,3.2-4.9,4.9c-0.7,0.7-1.5,0.8-2,0.2c-0.6-0.6-0.5-1.3,0.2-2
		c1.2-1.2,2.5-2.4,3.7-3.7c1.4-1.5,2.8-2.8,4.9-3.3c0.7,0,1.4,0,2,0c2,0.4,3.4,1.6,4.7,3.1c0.9,1,1.9,2,2.9,3
		c0.2-0.2,0.3-0.3,0.5-0.4c5.2-4.4,11.1-6,17.8-5c9.4,1.4,17.3,9.8,18,19.4c0,0.6,0.2,0.8,0.8,0.9c6.8,0.8,12.4,6.7,12.8,13.6
		c0.1,1.1,0,2.1,0,3.3c0.7,0,1.3,0,2,0c2.9,0.1,5.3,2,6.1,4.8c0.1,0.2,0.1,0.4,0.2,0.6c0,0.7,0,1.4,0,2l-0.1,0.1
		c-1.1,3.7-3.2,5.2-7,5.2c-5.8,0-11.6,0-17.4,0c-0.3,0-0.6,0-0.8,0c2.6,2.7,5.2,5.3,7.8,8c3.5,3.6,7.8,5.5,12.9,5.6
		c2,0,3.6,1.2,4.3,3.1c0.1,0.2,0.2,0.5,0.3,0.7c0,5.2,0,10.3,0,15.5c-0.6,1.9-1.9,3.2-3.9,3.7c-1,0-1.9,0-2.9,0
		c-0.9-0.1-1.7-0.2-2.6-0.3c-8-1-15.2-4-21.4-9.3c-3.1-2.7-5.9-5.7-8.9-8.6c-0.8-0.8-1.6-1.5-2.5-2.2c-2.4-1.8-5-2.8-8-3.2
		c0,0.4,0,0.7,0,1.1c0,5.9,0,11.7,0,17.6c0,2.3-1.1,4-3.1,4.7C40.2,93.5,39.9,93.6,39.6,93.7z M43.6,67.5c4.8,0.6,8.9,2.7,12.2,6.1
		c2,2,4,4.1,6.1,6.1c7.4,7.4,16.3,11.2,26.7,11.5c1.7,0.1,2.6-0.8,2.6-2.5c0-4.3,0-8.6,0-12.9c0-1.5-0.8-2.4-2.3-2.4
		c-5.6-0.1-10.3-2.2-14.2-6.1c-1.9-1.9-3.9-3.8-5.8-5.8c-3.3-3.4-7.1-6.2-11.4-8.2c-1-0.5-1.3-1.1-0.9-1.9c0.4-0.7,1.1-0.9,2-0.4
		c2,1.1,3.9,2.3,5.9,3.4c0.4,0.2,0.8,0.4,1.2,0.4c7.2,0,14.4,0,21.6,0c2.3,0,4-1.6,4-3.8s-1.7-3.8-4-3.8c-1,0-2,0-3.1,0
		c-1.3,0-1.7-0.6-1.5-1.8c0.4-1.9,0.4-3.8,0-5.7c-1.4-5.4-6-9.2-11.6-9.4c-1.2-0.1-1.6-0.4-1.7-1.6c0-0.6,0-1.2-0.1-1.9
		c-1.7-12.7-14-20.2-25.7-16c-2.3,0.8-4.3,2-6.2,3.8c0.4,0.3,0.7,0.6,1,0.9c2.5,2.5,5,4.9,7.4,7.5c2.5,2.5,1.6,6.5-1.7,7.7
		c-0.5,0.2-0.6,0.5-0.6,0.9c0,4.9,0,9.8,0,14.7c0,0.2,0,0.4,0,0.8c0.4,0,0.7,0,1.1,0.1c2.8,0.5,5.6,1,8.3,1.6
		c0.9,0.2,1.3,0.9,1.1,1.6c-0.2,0.7-0.9,1-1.8,0.8c-0.7-0.2-1.4-0.4-2-0.6c-2.2-0.4-4.4-0.8-6.7-1.2c0,0.9,0,1.6,0,2.3s0,1.4,0,2.1
		c2.5,1,3.7,2.5,3.7,4.6S46,62,43.6,63C43.6,64.5,43.6,65.9,43.6,67.5z M13,53.7c9.4,0,18.6,0,28,0c0-7.6,0-15.1,0-22.7
		c-9.3,0-18.6,0-28,0C13,38.6,13,46.1,13,53.7z M27,56.3c-0.8,0-1.6,0-2.5,0c-4.4,0-8.7,0-13.1,0c-1.3,0-2.2,0.9-2.2,2.1
		c0,1.2,0.9,2.1,2.2,2.1c0.2,0,0.4,0,0.6,0c10,0,19.9,0,29.9,0c0.3,0,0.6,0,0.8,0c1.3-0.2,2.1-1.3,1.8-2.6c-0.2-1-1.1-1.6-2.3-1.6
		C37.2,56.3,32.1,56.3,27,56.3z M36.8,63.1c0,0.2-0.1,0.2-0.1,0.3c0,8.5,0,17,0,25.5c0,1.2,0.9,2.1,2,2.1c1.1,0.1,2.1-0.7,2.2-1.9
		c0-0.3,0-0.6,0-0.8c0-8.1,0-16.2,0-24.3c0-0.3,0-0.6,0-1C39.5,63.1,38.2,63.1,36.8,63.1z M13,63.1c0,0.3,0,0.4,0,0.6
		c0,8.3,0,16.6,0,25c0,0.2,0,0.3,0,0.5c0.1,1,0.9,1.8,1.9,1.9s1.9-0.5,2.2-1.5c0.1-0.4,0.1-0.8,0.1-1.2c0-8.1,0-16.2,0-24.4
		c0-0.3,0-0.6,0-0.9C15.7,63.1,14.4,63.1,13,63.1z M19.8,68.1c4.9,0,9.6,0,14.4,0c0-1.7,0-3.3,0-5c-4.8,0-9.6,0-14.4,0
		C19.8,64.8,19.8,66.4,19.8,68.1z M34.1,75.8c0-1.7,0-3.4,0-5c-4.8,0-9.6,0-14.3,0c0,1.7,0,3.3,0,5C24.6,75.8,29.3,75.8,34.1,75.8z
		 M19.8,78.4c0,1.7,0,3.4,0,5c4.8,0,9.6,0,14.3,0c0-1.7,0-3.3,0-5C29.3,78.4,24.6,78.4,19.8,78.4z"/>
	<path class="st0" d="M27,50.4c-4.5,0-8.1-3.6-8.1-8c0-4.5,3.6-8.1,8.1-8.1c4.4,0,8.1,3.7,8.1,8.1C35,46.7,31.4,50.4,27,50.4z
		 M27,47.8c3,0,5.5-2.5,5.5-5.5S30,36.8,27,36.8s-5.5,2.5-5.5,5.6C21.4,45.4,23.9,47.8,27,47.8z"/>
</g>
</svg>
