<?xml version="1.0" encoding="utf-8"?>
<!-- Generator: Adobe Illustrator 25.1.0, SVG Export Plug-In . SVG Version: 6.00 Build 0)  -->
<svg version="1.1" id="Layer_1" xmlns="http://www.w3.org/2000/svg" xmlns:xlink="http://www.w3.org/1999/xlink" x="0px" y="0px"
	 viewBox="0 0 512 512" style="enable-background:new 0 0 512 512;" xml:space="preserve">
<style type="text/css">
	.st0{fill:#FFD600;}
</style>
<g>
	<path class="st0" d="M451.2,97.4V48.7c0-20.2-16.3-36.6-36.6-36.6H243.8c-20.2,0-36.6,16.3-36.6,36.6v48.8h244V97.4z"/>
	<path class="st0" d="M109.7,85.3h36.6c20.2,0,36.6,16.3,36.6,36.6V378c0,20.2-16.3,36.6-36.6,36.6h-36.6
		c-20.2,0-36.6-16.3-36.6-36.6V121.9C73.1,101.6,89.4,85.3,109.7,85.3z"/>
	<path class="st0" d="M451.2,121.9h-244V378c0,33.6-27.3,60.9-60.9,60.9h-36.6c-33.6,0-60.9-27.3-60.9-60.9V123
		c-28.5,5.8-48.8,30.9-48.8,59.8v256.1c0,33.7,27.3,60.9,60.9,60.9h390.2c33.7,0,60.9-27.3,60.9-60.9V182.8
		C512.1,149.1,484.8,121.9,451.2,121.9z M292.6,402.3c0,6.7-5.5,12.2-12.2,12.2H256c-6.7,0-12.2-5.5-12.2-12.2V378
		c0-6.7,5.5-12.2,12.2-12.2h24.4c6.7,0,12.2,5.5,12.2,12.2V402.3z M292.6,316.9c0,6.7-5.5,12.2-12.2,12.2H256
		c-6.7,0-12.2-5.5-12.2-12.2v-24.4c0-6.7,5.5-12.2,12.2-12.2h24.4c6.7,0,12.2,5.5,12.2,12.2V316.9z M378,402.3
		c0,6.7-5.5,12.2-12.2,12.2h-24.4c-6.7,0-12.2-5.5-12.2-12.2V378c0-6.7,5.5-12.2,12.2-12.2h24.4c6.7,0,12.2,5.5,12.2,12.2V402.3z
		 M378,316.9c0,6.7-5.5,12.2-12.2,12.2h-24.4c-6.7,0-12.2-5.5-12.2-12.2v-24.4c0-6.7,5.5-12.2,12.2-12.2h24.4
		c6.7,0,12.2,5.5,12.2,12.2V316.9z M463.3,402.3c0,6.7-5.5,12.2-12.2,12.2h-24.4c-6.7,0-12.2-5.5-12.2-12.2V378
		c0-6.7,5.5-12.2,12.2-12.2h24.4c6.7,0,12.2,5.5,12.2,12.2V402.3z M463.3,316.9c0,6.7-5.5,12.2-12.2,12.2h-24.4
		c-6.7,0-12.2-5.5-12.2-12.2v-24.4c0-6.7,5.5-12.2,12.2-12.2h24.4c6.7,0,12.2,5.5,12.2,12.2V316.9z M463.3,231.6
		c0,6.7-5.5,12.2-12.2,12.2H256c-6.7,0-12.2-5.5-12.2-12.2v-48.8c0-6.7,5.5-12.2,12.2-12.2h195.2c6.7,0,12.2,5.5,12.2,12.2v48.8
		H463.3z"/>
</g>
</svg>
