<?xml version="1.0" encoding="utf-8"?>
<!-- Generator: Adobe Illustrator 25.1.0, SVG Export Plug-In . SVG Version: 6.00 Build 0)  -->
<svg version="1.1" id="Layer_1" xmlns="http://www.w3.org/2000/svg" xmlns:xlink="http://www.w3.org/1999/xlink" x="0px" y="0px"
	 viewBox="0 0 512 512" style="enable-background:new 0 0 512 512;" xml:space="preserve">
<style type="text/css">
	.st0{fill:#FFD600;}
</style>
<g>
	<path class="st0" d="M331.8,277.3l-42.9,43c-17.4,17.5-48,17.8-65.8,0l-42.9-43l-154,154.5C32,434.4,38.3,436,45,436h422
		c6.7,0,13-1.6,18.8-4.2L331.8,277.3z"/>
	<path class="st0" d="M467,76H45c-6.7,0-13,1.6-18.8,4.2l164.6,165.1c0,0,0,0,0,0c0,0,0,0,0,0l53.5,53.7c5.7,5.7,17.6,5.7,23.3,0
		l53.5-53.7c0,0,0,0,0,0c0,0,0,0,0,0L485.8,80.2C480,77.6,473.7,76,467,76z M4.8,101.2c-3,6-4.8,12.7-4.8,19.8v270
		c0,7.1,1.8,13.8,4.8,19.8L159.1,256L4.8,101.2z M507.2,101.2L352.9,256l154.3,154.8c3-6,4.8-12.7,4.8-19.8V121
		C512,113.9,510.2,107.2,507.2,101.2z"/>
</g>
</svg>
