<?xml version="1.0" encoding="utf-8"?>
<!-- Generator: Adobe Illustrator 25.1.0, SVG Export Plug-In . SVG Version: 6.00 Build 0)  -->
<svg version="1.1" id="Layer_1" xmlns="http://www.w3.org/2000/svg" xmlns:xlink="http://www.w3.org/1999/xlink" x="0px" y="0px"
	 viewBox="0 0 1920 295" style="enable-background:new 0 0 1920 295;" xml:space="preserve">
<style type="text/css">
	.st0{fill:#2CA0A5;}
</style>
<path class="st0" d="M1920,295v-92.2c-13.5-71.4-76.4-125.6-151.7-125.6c-29,0-56.8,8-80.9,23C1650.7,38.4,1584.6,0,1511.1,0
	c-99,0-181.9,70.3-201.4,163.6C1294,137,1265.1,119,1232,119c-16.9,0-33.1,4.7-47.2,13.4c-21.4-36-60-58.4-102.8-58.4
	c-59.8,0-109.6,44-118.6,101.4c-16-14.5-37.2-23.4-60.4-23.4c-16.9,0-33.1,4.7-47.2,13.4c-21.4-36-60-58.4-102.8-58.4
	s-80.5,22.6-101.7,56.4C635.5,150.1,615.2,142,593,142c-16.9,0-33.1,4.7-47.2,13.4c-21.4-36-60-58.4-102.8-58.4
	c-43,0-80.8,22.7-102,56.8c-16.5-21.2-42.2-34.8-71-34.8c-16.9,0-33.1,4.7-47.2,13.4C201.4,96.4,162.8,74,120,74
	C53.8,74,0,127.8,0,194c0,0.4,0,0.8,0,1.2l0,0V295H1920z"/>
</svg>
